<svg width="376" height="306" viewBox="0 0 376 306" fill="none" xmlns="http://www.w3.org/2000/svg">
<path d="M14.7266 244.487L14.7652 256.856H8.04322L8.01519 244.189L0 228.305H7.61916L11.639 238.696L16.2827 228.305H23.59L14.7266 244.487Z" fill="black"/>
<path d="M39.2278 227.635C48.0105 227.635 53.1554 234.296 53.1554 242.587C52.9669 245.306 51.9882 247.911 50.3397 250.081C48.6912 252.251 46.4448 253.891 43.8765 254.801C41.3083 255.711 38.5302 255.851 35.8837 255.203C33.2373 254.554 30.8379 253.147 28.9805 251.153C27.1231 249.159 25.8887 246.665 25.429 243.979C24.9693 241.293 25.3044 238.53 26.393 236.032C27.4817 233.534 29.2764 231.408 31.5567 229.916C33.8369 228.424 36.5032 227.631 39.2278 227.635V227.635ZM39.1928 252.477C43.0794 252.477 46.0269 248.845 46.0269 242.587C46.0269 236.329 43.0794 232.69 39.1928 232.69C35.3061 232.69 32.3867 236.312 32.3867 242.587C32.3867 248.862 35.3446 252.477 39.1928 252.477Z" fill="black"/>
<path d="M67.1355 245.16H66.1472L66.1857 256.859H59.3832L59.4287 228.308H69.764C75.1402 228.308 79.6612 229.882 79.6612 236.35C79.6979 238.079 79.1047 239.762 77.9923 241.085C76.8799 242.408 75.3242 243.281 73.6157 243.541L73.8154 243.618C74.7179 244.287 75.476 245.131 76.0444 246.1L82.097 255.615L75.1297 257.185L69.1227 246.258C68.9269 245.907 68.637 245.619 68.2858 245.425C67.9346 245.231 67.5361 245.139 67.1355 245.16ZM66.1472 240.512H69.1647C69.6639 240.542 70.1636 240.463 70.6298 240.282C71.0959 240.101 71.5174 239.821 71.8655 239.462C72.2135 239.103 72.48 238.673 72.6465 238.201C72.8131 237.729 72.8759 237.227 72.8306 236.729C72.8306 234.384 71.7091 233.153 69.0245 233.153H66.1122L66.1472 240.512Z" fill="black"/>
<path d="M191.905 245.16H190.907L190.942 256.859H184.143L184.181 228.308H194.513C199.903 228.308 204.417 229.882 204.417 236.35C204.453 238.077 203.862 239.757 202.753 241.08C201.643 242.402 200.091 243.277 198.386 243.541L198.568 243.618C199.474 244.285 200.235 245.129 200.804 246.1L206.849 255.615L199.903 257.185L193.886 246.258C193.69 245.909 193.401 245.621 193.051 245.428C192.702 245.234 192.305 245.141 191.905 245.16V245.16ZM190.903 240.515H193.928C194.427 240.543 194.926 240.464 195.391 240.282C195.857 240.1 196.278 239.82 196.626 239.46C196.973 239.101 197.24 238.671 197.407 238.2C197.574 237.729 197.638 237.227 197.593 236.729C197.593 234.384 196.472 233.153 193.773 233.153H190.868L190.903 240.515Z" fill="black"/>
<path d="M87.34 228.308H94.097L94.1285 241.392H94.2056L101.425 228.308L109.227 228.273L100.935 241.679L109.879 255.632L102.918 257.203L94.2862 242.643H94.2056L94.2407 256.87H87.2944L87.34 228.308Z" fill="black"/>
<path d="M129.505 234.422C128.141 233.38 126.541 232.69 124.847 232.414C121.633 232.414 120.62 234.3 120.62 236.123C120.62 237.273 121.181 238.436 124.171 239.131C130.777 240.775 133.178 244.186 133.178 247.948C133.178 255.439 127.244 257.522 121.507 257.522C118.561 257.467 115.669 256.72 113.064 255.341L116.138 250.507C117.858 251.511 119.767 252.147 121.745 252.375C122.281 252.413 122.819 252.337 123.324 252.152C123.828 251.967 124.288 251.677 124.673 251.302C125.057 250.927 125.359 250.475 125.557 249.976C125.755 249.476 125.845 248.94 125.821 248.403C125.821 245.77 123.161 245.311 120.13 244.319C118.267 244.061 116.569 243.11 115.375 241.657C114.18 240.204 113.575 238.355 113.681 236.477C113.753 235.203 114.078 233.957 114.639 232.811C115.199 231.665 115.984 230.643 116.945 229.805C117.907 228.967 119.026 228.33 120.237 227.931C121.449 227.533 122.728 227.381 123.999 227.484C126.993 227.617 129.913 228.458 132.519 229.938L129.505 234.422Z" fill="black"/>
<path d="M139.192 228.308H145.945L145.85 239.488H155.026L154.805 228.315H161.572L161.523 256.866H154.938L155.078 245.073H145.875L146.085 256.866H139.135L139.192 228.308Z" fill="black"/>
<path d="M169.682 228.308H176.404L176.341 256.859H169.612L169.682 228.308Z" fill="black"/>
<path d="M67.861 276.6L70.7979 275.334L86.4393 298.206H86.5129L86.6881 275.902H90.2383L89.9825 303.549L86.9264 304.688L71.4147 281.61H71.3411L71.1694 304.12H67.6157L67.861 276.6Z" fill="black"/>
<path d="M115.262 303.216C114.203 304.131 112.861 304.651 111.463 304.688C110.623 304.613 109.843 304.222 109.281 303.593C108.719 302.964 108.418 302.145 108.438 301.301C107.748 302.3 106.836 303.126 105.774 303.714C104.712 304.301 103.528 304.635 102.315 304.688C101.532 304.732 100.749 304.611 100.016 304.331C99.2837 304.051 98.6183 303.62 98.0638 303.065C97.5093 302.511 97.0782 301.845 96.7986 301.112C96.5191 300.379 96.3974 299.596 96.4416 298.812C96.4416 293.059 103.871 291.724 108.322 291.548C108.35 290.707 108.396 289.852 108.396 288.989C108.436 288.574 108.383 288.154 108.241 287.762C108.098 287.369 107.87 287.013 107.572 286.72C107.274 286.427 106.915 286.205 106.521 286.068C106.126 285.932 105.706 285.885 105.291 285.932C103.7 285.932 102.4 286.497 99.417 288.737L98.0713 286.633C102.158 283.973 103.451 283.236 106.402 283.236C107.093 283.165 107.791 283.249 108.445 283.482C109.099 283.715 109.693 284.092 110.182 284.585C110.671 285.078 111.044 285.675 111.273 286.33C111.502 286.986 111.581 287.685 111.505 288.376C111.505 292.208 111.154 295.738 111.154 299.338C111.154 300.811 111.357 302.234 112.63 302.234C113.26 302.188 113.859 301.943 114.34 301.533L115.262 303.216ZM108.322 293.519C102.645 294.258 99.7009 295.296 99.7009 298.777C99.663 299.257 99.7325 299.738 99.9044 300.187C100.076 300.636 100.346 301.041 100.695 301.372C101.043 301.703 101.461 301.953 101.917 302.102C102.374 302.251 102.859 302.296 103.335 302.234C104.31 302.129 105.248 301.807 106.082 301.292C106.916 300.777 107.624 300.082 108.154 299.258L108.322 293.519Z" fill="black"/>
<path d="M120.775 283.818L120.859 276.316H124.122L124.034 283.818H129.589V286.272H124.002L123.908 294.588C123.876 296.867 123.876 298.378 123.876 299.394C123.876 301.07 124.367 302.003 125.741 302.003C126.91 301.886 128.032 301.482 129.007 300.825L130.058 302.928C128.552 303.975 126.784 304.582 124.952 304.681C121.819 304.681 120.592 302.718 120.592 299.499C120.592 298.15 120.592 296.481 120.631 293.669L120.715 286.244H117.249V283.79L120.775 283.818Z" fill="black"/>
<path d="M134.225 283.818H137.488L137.331 304.124H134.061L134.225 283.818ZM134.061 275.902H137.565V279.576H134.061V275.902Z" fill="black"/>
<path d="M153.046 283.24C159.004 283.24 162.564 287.324 162.564 293.964C162.645 295.327 162.45 296.692 161.99 297.978C161.53 299.263 160.815 300.442 159.888 301.444C158.961 302.446 157.841 303.251 156.595 303.809C155.349 304.367 154.004 304.667 152.639 304.691C146.681 304.691 143.131 300.646 143.131 293.964C143.049 292.602 143.243 291.237 143.702 289.952C144.161 288.667 144.875 287.488 145.801 286.486C146.728 285.484 147.847 284.68 149.092 284.122C150.337 283.565 151.682 283.264 153.046 283.24V283.24ZM152.695 302.234C155.748 302.234 159.056 299.591 159.056 293.964C159.056 288.337 156.312 285.69 153.014 285.69C149.958 285.69 146.65 288.337 146.65 293.964C146.65 299.591 149.355 302.241 152.688 302.241L152.695 302.234Z" fill="black"/>
<path d="M168.41 283.818H171.68L171.554 287.086H171.638C172.409 285.953 173.432 285.015 174.627 284.346C175.822 283.677 177.156 283.294 178.525 283.229C183.231 283.229 184.735 285.641 184.735 289.385C184.735 290.935 184.696 292.488 184.696 294.034L184.612 304.109H181.346L181.426 294.977C181.426 293.179 181.479 291.387 181.479 289.368C181.479 287.163 180.014 286.15 177.757 286.15C176.525 286.269 175.336 286.67 174.282 287.321C173.229 287.971 172.339 288.855 171.68 289.904L171.508 304.092H168.252L168.41 283.818Z" fill="black"/>
<path d="M209.425 303.216C208.372 304.136 207.031 304.658 205.633 304.691C204.795 304.614 204.017 304.22 203.458 303.591C202.899 302.962 202.599 302.143 202.619 301.301C201.929 302.299 201.018 303.125 199.956 303.713C198.895 304.301 197.712 304.636 196.5 304.691C195.717 304.736 194.933 304.615 194.2 304.335C193.467 304.056 192.801 303.625 192.246 303.07C191.691 302.515 191.26 301.85 190.98 301.116C190.7 300.383 190.578 299.599 190.623 298.816C190.623 293.063 198.046 291.727 202.497 291.552C202.535 290.711 202.574 289.855 202.574 288.993C202.613 288.578 202.561 288.16 202.419 287.769C202.277 287.377 202.05 287.022 201.754 286.73C201.458 286.437 201.101 286.214 200.708 286.077C200.315 285.939 199.896 285.891 199.483 285.936C197.884 285.936 196.577 286.5 193.605 288.74L192.249 286.637C196.332 283.976 197.646 283.24 200.576 283.24C201.267 283.167 201.965 283.251 202.62 283.484C203.274 283.717 203.868 284.094 204.358 284.587C204.847 285.08 205.22 285.677 205.449 286.333C205.677 286.989 205.756 287.689 205.679 288.379C205.679 292.211 205.353 295.741 205.353 299.342C205.353 300.811 205.563 302.234 206.825 302.234C207.455 302.19 208.055 301.944 208.535 301.533L209.425 303.216ZM202.497 293.519C196.819 294.258 193.886 295.296 193.886 298.777C193.845 299.256 193.913 299.739 194.083 300.188C194.254 300.638 194.523 301.043 194.871 301.375C195.219 301.707 195.637 301.956 196.094 302.105C196.552 302.253 197.036 302.298 197.513 302.234C198.487 302.128 199.424 301.806 200.258 301.292C201.092 300.778 201.8 300.084 202.332 299.261L202.497 293.519Z" fill="black"/>
<path d="M213.571 273.55H216.831L216.592 304.12H213.322L213.571 273.55Z" fill="black"/>
<path d="M234.018 275.902H242.551C247.9 275.902 251.537 278.633 251.537 284.018C251.537 290.297 246.147 292.453 241.489 292.453H237.449L237.287 304.12H233.783L234.018 275.902ZM237.417 289.764H241.896C242.686 289.838 243.483 289.743 244.234 289.486C244.984 289.229 245.672 288.815 246.251 288.272C246.83 287.729 247.288 287.07 247.593 286.337C247.898 285.604 248.044 284.815 248.022 284.022C248.022 281.003 246.305 278.356 241.735 278.356H237.491L237.417 289.764Z" fill="black"/>
<path d="M274.279 303.216C273.223 304.131 271.884 304.652 270.487 304.691C269.647 304.615 268.867 304.222 268.305 303.593C267.742 302.964 267.439 302.145 267.456 301.301C266.768 302.301 265.857 303.127 264.796 303.715C263.735 304.304 262.552 304.638 261.34 304.691C260.557 304.736 259.773 304.614 259.04 304.334C258.307 304.055 257.641 303.624 257.086 303.069C256.531 302.514 256.099 301.849 255.819 301.116C255.539 300.383 255.416 299.599 255.459 298.816C255.459 293.063 262.885 291.731 267.336 291.552C267.385 290.711 267.424 289.855 267.424 288.993C267.464 288.576 267.411 288.156 267.268 287.763C267.125 287.37 266.896 287.014 266.598 286.721C266.299 286.428 265.939 286.205 265.544 286.069C265.148 285.933 264.727 285.888 264.312 285.936C262.735 285.936 261.421 286.5 258.445 288.74L257.099 286.637C261.186 283.976 262.486 283.24 265.419 283.24C266.11 283.168 266.809 283.252 267.463 283.486C268.118 283.719 268.711 284.096 269.201 284.589C269.691 285.081 270.065 285.678 270.295 286.334C270.524 286.989 270.604 287.688 270.529 288.379C270.529 292.211 270.179 295.741 270.179 299.342C270.179 300.811 270.385 302.234 271.651 302.234C272.284 302.191 272.886 301.945 273.368 301.533L274.279 303.216ZM267.336 293.519C261.666 294.258 258.722 295.296 258.722 298.777C258.683 299.257 258.751 299.739 258.923 300.189C259.094 300.638 259.364 301.044 259.713 301.375C260.061 301.707 260.48 301.956 260.937 302.104C261.395 302.253 261.879 302.297 262.356 302.234C263.33 302.129 264.267 301.807 265.1 301.293C265.934 300.778 266.641 300.084 267.172 299.261L267.336 293.519Z" fill="black"/>
<path d="M278.835 283.822H282.182L282.14 287.766L282.221 287.85C282.619 286.621 283.363 285.533 284.363 284.716C285.363 283.898 286.577 283.386 287.86 283.24C288.456 283.236 289.049 283.333 289.612 283.527L288.641 286.637C288.229 286.515 287.802 286.446 287.373 286.43C286.016 286.43 283.868 287.524 282.116 290.784L281.961 304.106H278.678L278.835 283.822Z" fill="black"/>
<path d="M293.804 273.55H297.025L296.867 293.599L307.311 282.795L309.473 284.919L300.901 293.154L309.725 302.928L307.143 305.032L296.863 293.701L296.741 304.141H293.555L293.804 273.55Z" fill="black"/>
<path d="M371.327 234.422C369.963 233.378 368.361 232.688 366.666 232.413C363.452 232.413 362.46 234.3 362.46 236.123C362.46 237.272 363.018 238.436 366.014 239.13C372.617 240.775 375.014 244.189 375.014 247.951C375.014 255.439 369.095 257.522 363.343 257.522C360.401 257.467 357.512 256.72 354.911 255.341L357.988 250.507C359.703 251.509 361.606 252.145 363.578 252.375C364.114 252.412 364.651 252.335 365.155 252.149C365.659 251.964 366.119 251.675 366.503 251.3C366.888 250.925 367.189 250.473 367.387 249.974C367.586 249.475 367.677 248.94 367.654 248.403C367.654 245.77 364.994 245.311 361.963 244.319C360.099 244.06 358.402 243.11 357.207 241.656C356.013 240.202 355.41 238.352 355.518 236.473C355.588 235.2 355.912 233.953 356.472 232.807C357.031 231.661 357.815 230.639 358.776 229.801C359.737 228.963 360.856 228.325 362.067 227.927C363.279 227.529 364.557 227.377 365.828 227.481C368.825 227.615 371.748 228.456 374.359 229.935L371.327 234.422Z" fill="black"/>
<path d="M211.409 228.308H229.444L228.838 234.058H218.261V239.534H225.803V244.628H218.236L218.208 251.04L229.605 250.864L230.225 256.863H211.367L211.409 228.308Z" fill="black"/>
<path d="M331.174 228.308H349.213L348.603 234.058H338.026L338.043 239.534H345.585V244.628H338.005L337.987 251.04L349.374 250.864L349.994 256.863H331.135L331.174 228.308Z" fill="black"/>
<path d="M247.591 228.308H258.28C260.141 228.203 262.003 228.494 263.744 229.16C265.485 229.827 267.065 230.854 268.38 232.175C269.696 233.496 270.717 235.08 271.377 236.824C272.036 238.568 272.32 240.432 272.208 242.293C272.208 253.269 265.153 256.863 258.28 256.863H247.591V228.308ZM254.495 251.611H256.724C262.069 251.611 264.911 248.396 264.911 242.468C264.911 235.856 261.407 233.353 256.419 233.353H254.495V251.611Z" fill="black"/>
<path d="M284.8 228.308H292.51L302.499 256.859H294.799L292.637 249.893H284.092L281.884 256.859H274.612L284.8 228.308ZM285.554 244.806H291.442L288.428 234.289L288.34 234.485L285.554 244.806Z" fill="black"/>
<path d="M307.444 256.859H326.303L325.682 250.857L314.162 251.033L314.208 228.305H307.482L307.444 256.859Z" fill="black"/>
<path d="M308.709 24.9714C306.864 24.9673 305.062 24.4161 303.531 23.3877C301.999 22.3593 300.806 20.8997 300.104 19.1935C299.401 17.4872 299.22 15.6109 299.583 13.8018C299.947 11.9926 300.838 10.3317 302.144 9.02908C303.451 7.72646 305.114 6.84057 306.924 6.48337C308.734 6.12617 310.609 6.3137 312.312 7.02227C314.016 7.73083 315.471 8.92862 316.494 10.4642C317.517 11.9998 318.062 13.8043 318.06 15.6496C318.059 16.8763 317.817 18.0909 317.346 19.2237C316.876 20.3565 316.187 21.3854 315.318 22.2513C314.449 23.1172 313.419 23.8032 312.284 24.27C311.15 24.7368 309.935 24.9751 308.709 24.9714V24.9714ZM308.709 7.52333C307.107 7.52749 305.541 8.00645 304.211 8.89974C302.88 9.79304 301.844 11.0606 301.233 12.5425C300.622 14.0244 300.464 15.6541 300.778 17.226C301.092 18.7978 301.865 20.2414 302.998 21.3743C304.132 22.5073 305.575 23.279 307.147 23.5918C308.719 23.9047 310.348 23.7449 311.829 23.1324C313.31 22.5199 314.576 21.4823 315.468 20.1506C316.36 18.8188 316.837 17.2526 316.84 15.6496C316.84 14.5822 316.629 13.5253 316.22 12.5393C315.811 11.5533 315.212 10.6576 314.457 9.90326C313.702 9.14894 312.806 8.55082 311.819 8.14306C310.833 7.73531 309.776 7.52591 308.709 7.52683V7.52333ZM311.534 20.4946C311.406 20.4942 311.281 20.4538 311.176 20.3791C311.072 20.3043 310.994 20.1988 310.952 20.0774L310.192 17.5217C310.088 17.1145 309.847 16.7556 309.509 16.5058C309.171 16.256 308.757 16.1307 308.338 16.151H306.897V19.8881C306.9 19.969 306.886 20.0496 306.857 20.125C306.827 20.2003 306.782 20.2687 306.725 20.326C306.668 20.3832 306.599 20.4281 306.524 20.4577C306.449 20.4873 306.368 20.501 306.287 20.4981C306.206 20.5032 306.124 20.4909 306.048 20.4621C305.971 20.4333 305.902 20.3886 305.844 20.331C305.786 20.2733 305.741 20.2041 305.711 20.1277C305.682 20.0514 305.669 19.9697 305.674 19.8881V10.7276H309.459C309.79 10.7277 310.117 10.796 310.421 10.9283C310.724 11.0605 310.997 11.2539 311.222 11.4964C311.447 11.7388 311.62 12.0251 311.73 12.3374C311.84 12.6497 311.884 12.9812 311.86 13.3113C311.87 13.8055 311.756 14.2945 311.529 14.7335C311.302 15.1725 310.969 15.5477 310.56 15.8249C310.939 16.2061 311.217 16.6761 311.369 17.1922L312.126 19.7268C312.143 19.7908 312.151 19.857 312.147 19.9232C312.141 20.081 312.074 20.2303 311.96 20.34C311.847 20.4497 311.695 20.5113 311.537 20.5121L311.534 20.4946ZM309.459 11.9651H306.897V14.9415H309.217C309.42 14.9325 309.618 14.8823 309.801 14.794C309.983 14.7057 310.146 14.5812 310.279 14.428C310.412 14.2748 310.512 14.0962 310.573 13.903C310.635 13.7098 310.656 13.5061 310.637 13.3043C310.659 13.1367 310.646 12.9663 310.597 12.8045C310.548 12.6426 310.465 12.4932 310.353 12.3662C310.241 12.2393 310.104 12.1378 309.95 12.0686C309.795 11.9994 309.628 11.9641 309.459 11.9651Z" fill="black"/>
<path d="M125.173 86.8864C125.047 86.5359 124.91 86.1853 124.77 85.8347C123.068 80.9358 121.031 76.1601 118.672 71.5418C116.516 65.5461 112.453 60.4238 107.106 56.9614C105.144 55.5065 103.84 53.7676 101.583 53.2523C97.9626 51.0437 94.4439 48.6703 90.8727 46.4336C87.8822 44.5439 84.7597 42.872 81.5292 41.4309C77.8949 37.8761 73.118 38.0128 68.5935 36.3476C62.3898 35.7536 56.1397 35.8429 49.9556 36.614C45.2084 36.882 40.5952 38.2875 36.5047 40.7122C34.9546 41.6687 33.4942 42.7634 32.1414 43.9831C31.118 44.9121 30.4486 44.516 29.6425 45.6378C29.2009 46.367 28.4614 48.4775 27.9918 49.1926C23.8228 54.9147 21.7219 61.8844 22.0339 68.958C22.0979 75.2244 23.6818 81.3815 26.6495 86.9005C27.3995 88.6533 28.16 90.3641 28.875 92.0995C28.1741 93.9155 33.0491 100.299 33.0491 100.299L32.3481 95.8051C31.4474 87.3392 31.4474 78.8016 32.3481 70.3358C33.7361 65.1146 35.4929 59.9985 37.6051 55.0262C39.7079 53.6484 42.9708 52.6213 44.0467 50.956C46.3344 49.7166 48.9655 49.2622 51.5362 49.6624C53.8516 49.5066 56.1759 49.7751 58.3949 50.4547C59.718 51.1498 60.9837 51.9493 62.1799 52.8456C65.2883 53.6813 68.1148 55.3378 70.3633 57.6415C73.3318 60.6109 76.4685 63.2226 79.2266 66.5636C81.8411 72.583 87.361 77.4595 89.1729 83.7418C92.6449 96.5508 95.1462 109.603 96.6554 122.789C94.9907 123.36 95.5234 126.025 94.875 127.374C94.6472 126.498 93.028 126.414 92.5128 126.414C88.8236 123.559 85.5944 120.155 82.9381 116.321C82.9556 109.278 80.2149 111.991 78.4696 104.051L79.7769 105.569C80.979 106.561 80.7512 105.47 81.75 106.561C82.5105 108.419 86.0643 110.768 87.9498 113.572C89.0362 114.235 89.9825 112.556 90.403 111.819C90.4345 105.416 89.0736 99.0817 86.4147 93.2564C85.7725 89.4533 84.8994 85.6928 83.8002 81.9959C82.6695 80.9007 81.6677 79.6798 80.8143 78.3569C79.1369 75.982 77.1309 73.8573 74.8563 72.0466C73.3283 70.6618 73.5596 68.9651 71.8143 67.5978C70.875 67.3734 68.9544 62.7494 67.486 63.0123C67.3283 63.0333 67.4579 68.1657 67.486 75.4261C67.507 77.2176 67.4579 79.8504 68.0397 80.2781C68.7757 81.9328 67.3808 85.3159 67.5386 86.8654C68.9019 99.9734 71.1028 113.159 78.0526 123.995C80.3555 128.675 83.5057 132.887 87.3435 136.419C89.0843 138.309 90.9307 140.099 92.8738 141.779C95.1343 143.532 100.84 141.632 103.388 142.796C105.697 143.029 108.017 143.13 110.338 143.098C111 142.624 110.947 141.159 111.47 139.841C111.852 138.705 112.171 137.534 112.486 136.335C113.471 132.293 113.919 124.107 114.939 120.209C114.541 117.964 114.395 115.681 114.505 113.404C115.609 111.619 115.805 108.748 116.607 107.444C116.825 108.724 117.431 115.139 118.276 119.714C118.258 121.714 118.484 123.708 118.949 125.653C118.136 128.832 117.965 132.142 118.447 135.388C119.085 135.388 119.636 136.605 119.849 137.282C122.355 133.274 127.139 127.609 128.282 123.132C128.751 110.62 129.315 97.8559 125.173 86.8864Z" fill="black"/>
<path d="M246.287 86.8864C244.766 97.912 243.228 109.965 245.586 120.829C246.084 124.667 247.086 128.422 248.565 131.998C249.96 133.784 251.686 135.285 253.647 136.419C254.386 136.953 255.071 137.556 255.694 138.221L259.693 139.455C259.021 138.58 258.63 137.521 258.571 136.419C258.384 135.112 258.318 133.791 258.372 132.472C257.94 128.401 255.918 126.025 256.202 121.895C258.084 117.253 257.65 109.747 259.707 105.162C259.682 106.84 260.192 108.483 261.161 109.853C261.463 117.327 260.005 125.979 263.783 132.85C264.088 133.902 264.529 135.157 265.009 136.423C265.629 138.549 266.693 140.52 268.132 142.204C270.239 142.695 272.435 142.652 274.521 142.077C276.697 141.948 278.824 141.38 280.774 140.408C282.725 139.435 284.459 138.079 285.873 136.419C288.004 134.152 289.986 131.749 291.806 129.225C295.009 124.146 299.572 119.202 300.88 113.327C303.308 104.699 304.794 95.8342 305.313 86.8864C305.39 85.2212 305.408 83.542 305.39 81.8627C305.336 79.6133 305.079 77.3735 304.623 75.1702C304.37 72.2044 305.593 69.2105 304.511 66.5251C303.964 65.7222 303.137 64.9089 303.424 63.8291C303.137 63.8291 302.877 63.8291 302.695 64.1587C300.244 67.2148 297.243 69.7845 293.846 71.7346C291.266 76.4639 286.693 82.3465 287.537 85.6139C286.889 87.0547 284.005 91.16 283.528 92.7305C281.425 99.5702 282.711 104.201 282.049 111.472C281.91 112.109 281.952 112.771 282.168 113.385C282.385 114 282.768 114.542 283.276 114.95C285.105 115.167 285.028 113.057 285.904 112.128C286.787 110.158 288.308 108.489 289.016 106.392C290.056 105.454 291.326 104.806 292.696 104.517L291.662 106.88C290.154 111.043 288.41 115.117 286.44 119.083C284.765 120.373 284.338 123.35 282.235 123.781C281.218 125.457 279.144 125.832 277.942 126.81C274.553 122.561 276.929 117.625 276.133 112.987C277.367 109.355 277.293 105.148 278.236 101.369C278.916 97.3055 278.197 94.6622 279.2 90.7568C280.307 86.4412 283.153 80.8741 284.495 76.6602C284.79 75.7837 285.077 74.9073 285.375 74.0133C286.237 72.5585 285.873 70.3884 286.605 69.1509C289.759 66.3463 292.994 63.3103 296.359 60.3865C299.104 57.9554 301.976 55.6711 304.963 53.5433C306.529 52.4355 308.117 51.4398 309.736 50.5073C311.312 50.0276 312.953 49.7911 314.6 49.8062C316.892 49.5236 319.215 49.6422 321.466 50.1567C323.476 50.7488 325.435 51.5003 327.326 52.4039L328.574 52.6248C329.91 53.5535 331.33 54.3563 332.814 55.0227C334.215 57.0933 335.406 59.2989 336.368 61.6065C337.136 63.5557 338.821 66.0062 338.636 67.7486C339.336 71.7451 340.111 75.9871 340.388 80.1274C340.639 86.449 340.371 92.7807 339.585 99.0584C339.214 99.4896 339.585 101.421 338.411 102.887C337.2 104.541 336.315 106.412 335.804 108.398C336.018 107.612 337.157 107.304 337.966 106.764C339.877 104.969 341.597 102.979 343.097 100.829C343.559 100.278 343.916 99.6473 344.148 98.9672C344.148 98.9672 346.339 93.5123 345.617 93.7367C345.969 91.3123 346.803 88.9831 348.07 86.8864C348.219 86.5431 348.348 86.192 348.459 85.8347C350.524 79.1005 351.694 72.1238 351.939 65.0842C351.041 60.8175 349.535 56.7019 347.467 52.8632C345.656 49.7932 343.376 47.0253 340.71 44.6597C339.193 42.725 337.223 41.1945 334.973 40.2039C327.925 36.9295 318.501 37.9112 310.98 36.4598C305.357 36.4352 299.764 37.2807 294.4 38.9664C294.003 39.6936 293.713 40.474 293.537 41.2837C288.59 42.8275 283.768 44.746 279.112 47.0226C275.324 50.8789 270.35 52.1725 266.523 55.8781C256.009 63.6363 251.919 75.9029 246.326 86.5674C246.326 86.6726 246.301 86.7918 246.287 86.8794" fill="black"/>
<path d="M266.618 46.8298C266.337 42.9529 265.52 39.1338 264.189 35.4817C261.2 33.0522 260.944 27.9268 258.298 25.1642C256.395 23.2045 254.513 21.357 252.943 19.534C250.576 16.8791 247.947 14.4701 245.096 12.3437C244.426 11.3972 243.13 11.8354 242.835 10.5909C240.662 10.4471 238.98 8.62763 237.021 7.61097C236.048 6.72839 235.16 5.75656 234.368 4.70821C236.115 3.30908 237.951 2.0267 239.867 0.869415C247.926 1.83947 255.864 3.63807 263.555 6.23671C265.805 6.01235 267.761 7.54085 269.863 8.19643C273.13 8.77838 275.176 12.186 277.85 14.2894C283.672 18.0686 282.543 19.4534 288.347 23.7339L295.553 28.8067C297.06 29.775 298.178 31.2452 298.707 32.9575C297.43 33.8172 295.954 34.335 294.421 34.4615C288.68 36.4247 289.342 40.3266 278.005 41.9357C274.956 43.2504 270.768 47.275 267.718 49.084C267.445 48.5158 267.091 47.9903 266.667 47.5239" fill="black"/>
<path d="M102.743 47.2434C102.69 46.1579 102.851 45.0725 103.219 44.0497C103.586 43.0269 104.152 42.0869 104.884 41.2837C106.82 38.7733 108.552 36.1121 110.064 33.3256C111.172 31.7165 112.304 30.1214 113.453 28.5052C113.173 27.422 112.09 26.8505 110.383 25.2063C112.991 23.1029 117.235 21.4026 119.926 19.2115C121.71 19.0853 125.068 15.0046 125.933 13.4235C127.949 11.7688 130.332 10.682 132.319 9.05535C134.468 7.28144 136.582 5.54142 138.659 3.83529C137.891 3.19023 137.436 2.08241 136.717 1.6477C133.882 1.54001 131.083 0.983885 128.422 0C127.342 0.350575 125.586 -0.0771251 124.283 0.350576C120.718 1.65822 117.098 2.59075 113.611 4.12276C112.841 4.78806 111.869 5.17352 110.853 5.21655C110.19 5.94574 108.946 5.86161 108.235 6.5873C103.158 8.0982 98.5357 10.8445 94.7804 14.5804C89.4813 18.4893 78.007 32.0285 73.0759 32.7647C76.4579 33.0674 79.7568 33.982 82.8119 35.4641C85.393 37.4364 88.0997 39.2387 90.9147 40.8595C95.2465 43.2925 95.5129 42.4826 97.9451 44.6387C99.2699 45.8657 102.61 45.743 102.743 47.2434Z" fill="black"/>
<path d="M235.864 43.9515C236.954 44.3968 237.175 46.6054 238.258 47.1838C238.836 48.1304 240.035 50.2934 239.607 51.5976C239.387 51.524 239.05 53.4556 238.907 53.5959L239.057 54.1112C237.613 54.7598 238.079 56.6108 236.45 57.049C235.251 55.198 234.298 54.3636 233.296 54.2164C232.283 54.794 231.198 55.2315 230.068 55.517C228.477 56.1656 226.363 55.517 225.424 57.1086C224.632 57.035 224.632 57.9079 224.19 58.3426C222.007 59.4399 221.502 62.2691 219.319 63.7205L218.562 64.1061C218.562 65.3436 217.794 64.8072 217.577 65.8274C217.279 66.1079 216.817 66.0939 216.487 67.1912C216.347 64.3448 216.793 61.5001 217.798 58.8335C218.063 56.6357 218.501 54.4624 219.109 52.3338C220.576 50.2532 222.337 48.3968 224.338 46.8228C226.784 41.8761 231.715 43.8674 235.864 43.9515Z" fill="black"/>
<path d="M147.077 45.1505C149.643 47.1071 151.986 49.3409 154.062 51.8114C154.223 53.8696 154.516 55.9153 154.938 57.936C155.425 60.2953 155.99 63.3734 156.308 65.277C156.627 67.1806 156.711 68.5794 156.221 68.7617L155.289 67.3314C152.387 63.8467 149.986 59.7134 146.933 56.3058C145.847 56.0113 143.331 54.1533 142.241 55.0262C140.863 54.7457 140.432 56.4285 138.908 56.6984C138.156 56.9556 137.334 56.9151 136.611 56.5852C135.889 56.2553 135.32 55.661 135.021 54.9245C134.075 54.574 133.787 53.694 132.981 53.0385C133.528 50.8641 134.566 48.8439 136.014 47.1326C137.462 45.4214 139.283 44.0646 141.336 43.1663L147.077 45.1505Z" fill="black"/>
<path d="M137.727 68.2184C138.867 69.9182 140.418 71.3016 142.237 72.2394C143.176 71.661 145.451 72.7513 146.383 72.6777C148.353 72.86 150.07 71.1176 151.567 71.0229C152.765 73.6838 153.298 71.4997 154.058 73.4174C154.928 75.8714 152.604 78.6024 152.173 80.9933C151.016 83.1669 149.11 86.01 146.215 85.8558C141.925 87.3773 140.39 82.5078 137.103 80.9933C134.495 78.3815 134.65 73.8381 134.355 70.4971L133.5 64.1867C135.21 65.1738 136.66 66.5562 137.727 68.2184V68.2184Z" fill="black"/>
<path d="M232.181 72.7442C233.292 72.0431 234.119 70.1219 235.111 69.2385C236.103 68.355 237.007 67.4856 237.75 66.8546C237.424 70.5602 238.258 77.456 236.162 81.0949C233.246 82.3149 230.905 85.6524 227.66 85.5823C226.64 86.3711 225.263 85.5087 224.32 85.719C221.906 81.8817 219.814 77.8502 218.068 73.6663C218.204 72.285 219.722 73.7609 220.661 72.8985C221.397 73.5435 222.585 72.001 223.465 72.3271C224.753 72.6499 226.064 72.8691 227.387 72.9826C228.162 73.2625 228.985 73.3856 229.808 73.3447C230.631 73.3037 231.438 73.0996 232.181 72.7442V72.7442Z" fill="black"/>
<path d="M202.546 171.207C201.789 171.869 200.982 172.525 200.621 172.844C199.171 174.804 196.065 175.466 194.313 177.152C189.617 178.443 188.835 177.261 185.201 176.977C184.405 177.528 183.456 177.814 182.488 177.794C181.822 176.7 180.512 177.131 179.492 176.777C176.229 174.674 174.14 173.272 170.797 171.399C171.018 170.821 169.188 169.433 169.258 168.917C170.204 169.11 170.639 168.304 173.257 169.44C174.371 169.839 176.586 171.242 177.722 171.599C179.105 172.084 180.528 172.45 181.973 172.693C183.196 169.643 184.798 165.682 182.699 162.467C180.699 160.181 178.827 157.786 177.091 155.294C176.3 154.248 175.435 153.26 174.501 152.339C173.401 151.217 172.091 150.322 170.646 149.706C170.261 148.556 169.539 148.37 168.936 147.297C168.69 146.85 168.505 146.371 168.386 145.874C169.234 145.99 169.84 145.524 170.965 146.056C173.068 147.063 174.929 149.089 176.544 149.657C179.327 149.306 181.896 151.862 184.605 151.788C187.307 152.438 190.135 152.327 192.778 151.469C193.969 151.24 195.122 150.847 196.206 150.302C197.154 149.728 198.051 149.071 198.883 148.339C199.816 147.49 200.82 146.723 201.883 146.046C203.671 145.138 203.86 145.878 205.521 145.772L204.389 147.48C204.168 149.794 202.591 149.387 201.652 151.287C200.435 152.226 199.294 153.259 198.238 154.376C197.103 155.525 195.985 156.714 194.895 157.734C193.37 160.346 190.16 161.881 189.287 164.7C189.524 167.439 190.063 170.143 190.896 172.763C193.084 172.566 195.241 172.102 197.317 171.382C198.368 171.059 200.159 169.808 201.238 169.569C201.824 168.686 203.457 169.247 204.326 169.548C203.71 170.201 203.053 170.813 202.36 171.382H211.949C215.125 167.714 217.618 163.506 219.308 158.958C222.347 153.885 221.933 147.995 224.832 142.926C225.48 140.693 226.514 138.582 227.285 136.402C228.205 134.122 228.558 131.654 228.312 129.208C226.56 124.973 226.609 119.707 224.327 115.609C221.985 113.063 219.451 110.702 216.746 108.545C214.843 106.634 213.848 104.051 211.22 102.694C207.3 100.575 204.108 97.3258 202.058 93.3686C202.058 92.0609 196.847 89.351 194.888 87.9136C189.631 87.1003 179.961 88.2993 178.815 89.6209C176.147 90.043 173.556 90.8619 171.13 92.0504C170.272 92.7033 169.567 93.5356 169.064 94.4893C168.561 95.443 168.272 96.495 168.217 97.572C166.305 99.322 164.487 101.172 162.771 103.115C161.056 105.692 158.704 107.783 155.944 109.183C152.725 111.348 149.795 113.913 147.224 116.819C146.458 120.434 145.948 124.1 145.7 127.788C146.292 129.485 146.807 131.213 147.28 132.948C147.664 134.132 148.109 135.295 148.612 136.433C149.098 137.484 149.502 138.57 149.821 139.683C150.725 143.469 150.284 145.439 151.409 149.149C152.614 153.373 154.434 157.398 156.81 161.093C157.546 166.534 161.583 172.002 164.418 176.584C168.322 183.515 173.643 182.383 177.34 185.422C178.672 186.52 181.914 186.495 184.083 187.221C186.362 187.658 188.712 187.538 190.935 186.87C192.011 186.52 193.086 186.169 194.005 185.85C197.246 184.573 200.385 183.05 203.394 181.293C206.275 177.868 209.369 174.667 212.155 171.231L202.546 171.207Z" fill="black"/>
</svg>
