<svg xmlns="http://www.w3.org/2000/svg" width="55.398" height="99.926" viewBox="0 0 55.398 99.926"><defs><style>.a{fill-rule:evenodd;}.b{fill:#003d2a;}</style></defs><g transform="translate(-694.172 -3696.756)"><path class="a" d="M715.418,3719.138s0-.009,0-.014l.021.022-.019-.008c.075.547.007,1.157.849,1.562,1.261-.5,2.072-1.734,3.474-2.688-1.388-1.129-1.736-2.977-3.7-3.2a11.677,11.677,0,0,1-2.278,2.546C713.533,3718.671,714.586,3718.8,715.418,3719.138Zm1.014-3.356.789,1.346-.021-.024c.358.988-.862.814-.9,1.677C714.812,3717.438,716.27,3716.806,716.432,3715.782Z"/><path class="a" d="M694.758,3723.233c.391-.985-.992-1.669-.464-2.727,1.745-.642,3.7-.652,5.4-1.5a2.29,2.29,0,0,1,.6,2.081C698.689,3722.306,696.4,3721.976,694.758,3723.233Z"/><path class="a" d="M720.846,3698.844c-.012,2.047-2,2.847-2.778,4.449l1.854-1.233c-.767.848-1.3,1.952-2.5,2.206a3.446,3.446,0,0,1-1.708-1.366,10.6,10.6,0,0,0,2.063-1.475C718.893,3700.661,719.495,3699.309,720.846,3698.844Z"/><path class="a" d="M695.027,3711.986a19.473,19.473,0,0,0,5.144-.122,1.809,1.809,0,0,0,.144-2.048,13.794,13.794,0,0,0-5.736.25A4.19,4.19,0,0,1,695.027,3711.986Zm.452-.893a6.357,6.357,0,0,1,4.33-.242A6.749,6.749,0,0,1,695.479,3711.093Z"/><path class="a" d="M710.441,3709.4c.409-.367.919-.61,1.347-.187.833.823,1.573,1.74,2.351,2.618l-.185.221-2.055-.882A1.867,1.867,0,0,0,710.441,3709.4Z"/><path class="a" d="M710.4,3709.391l.038.013-.013.011Z"/><path class="a" d="M708.3,3711.466a5.928,5.928,0,0,0,1.451,1.682C708.773,3712.993,708.227,3712.484,708.3,3711.466Z"/><path class="a" d="M711.863,3714.256c-.273-.53-.187-.853.294-1.123C712.638,3713.683,712.3,3713.932,711.863,3714.256Z"/><path class="a" d="M709.62,3711.085c-.346.55-.849.342-1.292.341C708.677,3711.112,708.982,3710.651,709.62,3711.085Z"/><path class="a" d="M710.392,3709.475h0C710.381,3709.546,710.385,3709.524,710.392,3709.475Z"/><path class="a" d="M710.392,3709.474c0-.023.007-.051.012-.082l.023.023-.035.059Z"/><path class="a" d="M708.69,3714.367l0,0,0,0,0,0,.008-.009.011-.009Z"/><path class="a" d="M711.1,3715.434a.038.038,0,0,0,0,.006c-.008,0-.014.01-.022.015Z"/><path class="a" d="M708.128,3722.979a2.6,2.6,0,0,0,1.453-1.791,1.758,1.758,0,0,0,1.747-1.256c.486.219.807.587.38,1.041a27.357,27.357,0,0,1-2.362,2.192C708.936,3723.508,708.49,3723.333,708.128,3722.979Z"/><path class="a" d="M711.3,3719.907l.033,0a.215.215,0,0,1-.008.021l-.008,0Z"/><path class="a" d="M709.424,3719.184c-.078-.5-.516-1-.223-1.873l2.1,2.6A3.062,3.062,0,0,1,709.424,3719.184Z"/><path class="a" d="M706.775,3719.6c.33-.184.541-.441,1.04-.306C707.522,3719.765,707.251,3719.875,706.775,3719.6Z"/><path class="a" d="M706.206,3720.881c.247.006.586,0,.828,0h0s-.1-.009-.1-.009l-.023-.085a.647.647,0,0,0-.026.107c.209.132.451.258.724.43C706.91,3721.62,706.581,3721.226,706.206,3720.881Z"/><path class="a" d="M704.994,3714.675l-.087-.031.016-.02Z"/><path class="a" d="M710.466,3731.755l.293-.124-.129-.286.011-.027.005-.02c1.016-.417,1-1.117.643-1.909-.024-.053-.049-.105-.075-.158a19.126,19.126,0,0,0-.485,2.053c-.011,0-.011.024-.011.024v0h0c0,.008-.076.031-.072.039s-.039.016-.037.02a.4.4,0,0,1-.123.385l-.046.017-.075.033h0c0,.006.048,0,.053,0l.021-.012C710.441,3731.778,710.462,3731.762,710.466,3731.755Z"/><path class="a" d="M732.572,3747.187a1.781,1.781,0,0,0-.166-.145c-.029-.022-.084-.009-.127-.012h0l.293.157h0Z"/><path class="a" d="M732.572,3747.187h0l.064.061.053.059c-.014-.027-.029-.054-.044-.08Z"/><path class="a" d="M701.035,3717.144l.016.012,0,0Z"/><path class="a" d="M695.358,3711v0l-.012,0Z"/><path class="a" d="M719.976,3709.688l-.017,0,.009.016Z"/><path class="a" d="M723.506,3716.037l-.016-.007a.041.041,0,0,1,0,.009Z"/><path class="a" d="M708.731,3714.929l-.011,0s0,.01,0,.014Z"/><path class="a" d="M708.744,3702.962l.008.013.008-.007Z"/><path class="a" d="M702.393,3709.075c0,.005.006.009.01.014l.011-.005Z"/><path class="a" d="M721.729,3699.966l.016.013.005-.006Z"/><path class="a" d="M739.71,3760.27c-1.084-.786-1.958-.95-2.916-.259-.683.494-1.435.892-2.147,1.348a5.022,5.022,0,0,0-1.1.806c-.171.2-1-.064-.538.686.055.09-.432.646-.757.8-1.953.957-3.89,1.973-5.917,2.751s-3.825,2.428-6.264,1.78c-1.847.773-3.7,1.534-5.535,2.335a1.357,1.357,0,0,0-.526.642.545.545,0,0,0,.119.47.484.484,0,0,0,.422.079c2.592-.837,5.2-1.623,7.762-2.549a89.489,89.489,0,0,0,15.671-7.776C738.518,3761.068,739.029,3760.713,739.71,3760.27Z"/><path class="a" d="M705.587,3727.52c.2-.06.272-.509.418-.806-1.251.2-2.367.354-3.475.555a1.694,1.694,0,0,0-.924.375,5.7,5.7,0,0,1-3.011,1.491c-1.146.311-2.271.7-3.407,1.052q0,.174.005.347c.366.086.789.334,1.089.23,1.554-.542,3.078-1.169,4.608-1.777.41-.162.868-.589,1.2-.5C703.477,3728.858,704.438,3727.873,705.587,3727.52Z"/><path class="a" d="M699.886,3714.984c-.281-1.093-1.213-.753-1.974-.781-1.161-.043-2.321-.113-3.481-.171,0-.044,0-.087-.006-.132-.005.044-.01.087-.015.131l.021.007c.005,1.508,0,1.526,1.377,1.693a20.654,20.654,0,0,0,2.208.149C699.443,3715.9,700.047,3715.609,699.886,3714.984Z"/><path class="a" d="M735.081,3765.792a2.691,2.691,0,0,0-1.217.9c-.681.7-.558,1.359.279,1.984a1.447,1.447,0,0,1,.961-1.937,21.99,21.99,0,0,0,2.622-1.068c1.281-.817,2.443-1.818,3.655-2.741l-.187-.432a10.722,10.722,0,0,0-1.73.768C738.06,3764.2,736.893,3765.5,735.081,3765.792Z"/><path class="a" d="M700.137,3724.859c-.081-.321-.555-.787-.836-.776a9.014,9.014,0,0,0-4.847,1.45l2.567.467.007-.013c.534-.061,1.071-.162,1.605-.207.037,0,.075-.009.113-.012a4.982,4.982,0,0,1,.576-.008C700.09,3725.8,700.265,3725.369,700.137,3724.859Z"/><path class="a" d="M697.9,3704.529c.012.375-.116.856.07,1.1a3.709,3.709,0,0,0,1.142.716c1.475.846,2.917,1.221,4.218-.289-1.509-.507-3.014-1.026-4.531-1.508A3.174,3.174,0,0,0,697.9,3704.529Z"/><path class="a" d="M706.771,3703.363q0-.212.007-.426l-1.575-.313.038,0-.026-.01a1.528,1.528,0,0,0,.985-1.674c0-.013-.006-.029-.008-.042a2.962,2.962,0,0,0-.059-.315c-.031-.123-.078-.3-.124-.425-.16-.446-.268-.973-.392-1.421l.351-.059c.132.447.247.781.365,1.148a1.27,1.27,0,0,0,1.2,1.027,9.325,9.325,0,0,1,1.6.4c-.5-.874-.963-1.768-1.527-2.6-.254-.375-.781-.909-1.069-.847a7.851,7.851,0,0,0-1.884.946l.008-.019c-.2.1-.409.187-.6.307-1.156.747-1.148.768-.3,1.89.364.481.673,1,1.006,1.508l-.015-.005-2.749-2.18c-.325,1.454.5,2.33,1.008,3.31C704.257,3703.429,705.594,3704.053,706.771,3703.363Z"/><path class="a" d="M730.467,3789.267c.28-1.556,1.524-2.468,2.413-3.616a2.992,2.992,0,0,0-2.723,2.211,3.973,3.973,0,0,1-1.523,1.945,5.116,5.116,0,0,0-2.186,3.077c1.439-1.24,2.582-2.221,3.718-3.211A.845.845,0,0,0,730.467,3789.267Z"/><path class="a" d="M732.9,3785.631l-.016.02h.008Z"/><path class="a" d="M722.033,3706.268c-.278.2-.321.724-.471,1.1.408-.01.907.128,1.208-.056,1.068-.656,2.082-1.4,3.082-2.162.167-.126.159-.481.233-.73a5.434,5.434,0,0,0-.784-.037,2.741,2.741,0,0,0-.63.262C723.879,3705.119,722.912,3705.633,722.033,3706.268Z"/><path class="a" d="M711.192,3697.514a13.836,13.836,0,0,0-.425,2.337l.008-.021c0,.184-.042.518,0,.529.561.147,1.144.273,1.564.356.145-1.111.283-2.162.425-3.156h0c.015,0,.018-.039.033-.045-.013,0-.032-.014-.046-.015l-.009.017-.523-.76C711.866,3697,711.309,3697.181,711.192,3697.514Z"/><path class="a" d="M731.31,3728.375c-.738-.05-1.489.019-2.218-.077a4.713,4.713,0,0,0-2.469.322c-1.146.449-2.455.711-3.461-.475.013-.21.027-.419.042-.629q-.024.314-.047.627c-.17.7.126,1.155.816,1.2a19.246,19.246,0,0,0,2.374-.063c.78-.043,1.557-.136,2.336-.18,1.215-.067,2.431-.111,3.646-.164A1.329,1.329,0,0,0,731.31,3728.375Z"/><path class="a" d="M732.6,3794.521c.475-1.449.937-2.9,1.359-4.368.061-.211-.1-.486-.175-.735-.263.758-.59,1.473-1.466,1.7-.584.149-.525.535-.407.94h-.06l.154.353.043-.044c-.2,1.441-.377,2.875-.574,4.316A6.207,6.207,0,0,0,732.6,3794.521Z"/><path class="a" d="M738,3791.3h0l.018,0-.148-.343-.03.013c-.011,0-.026,0-.04,0a.088.088,0,0,0-.057,0,.7.7,0,0,0-.1.066.274.274,0,0,1-.055.043l-.063.027s.014.007.02.01c-1.22.035-.667.77-.53,1.339l-.015,0c.05.117.1.234.152.351l.006-.016c.5,1.2.422,2.673,1.92,3.45Q738.535,3793.765,738,3791.3Z"/><path class="a" d="M738.015,3791.3,738,3791.3h0Z"/><path class="a" d="M746.025,3770.98s0,.01,0,.015l.017-.008Z"/><path class="a" d="M740.6,3774.825c.167.006.366.066.488,0,1.7-.978,3.4-1.963,5.064-3,.095-.059-.074-.536-.127-.828A14.569,14.569,0,0,0,740.6,3774.825Z"/><path class="a" d="M714.283,3726.744l-.008.018.011-.014Z"/><path class="a" d="M717.841,3728.348a4.334,4.334,0,0,0,1.181-.069,7.213,7.213,0,0,0-4.264-2.116l.024.01-.494.576c.278.263.514.636.844.764A22.524,22.524,0,0,0,717.841,3728.348Z"/><path class="a" d="M704.686,3724.077c.22-.2.425-.424.635-.637-.288-.129-.582-.377-.864-.365-.734.031-1.464.177-2.2.276l0-.022-.009.023h0l-.078.2.078-.2-.6.141.422.3-.011.029.014-.028a2.262,2.262,0,0,0,3,.934l-1.114-.176A8.328,8.328,0,0,0,704.686,3724.077Z"/><path class="a" d="M705.08,3724.73l.041.006.021-.018-.014-.005C705.111,3724.72,705.1,3724.724,705.08,3724.73Z"/><path class="a" d="M740.52,3768.34c.758-.287,1.544-.519,2.267-.875,1.305-.642,1.293-.7.335-1.711l-2.77,2.244Z"/><path class="a" d="M733.039,3723.515c-.26-.073-.486-.214-.676-.177-1.495.286-2.983.6-4.474.914A5.866,5.866,0,0,0,733.039,3723.515Z"/><path class="a" d="M725.058,3786.8a.616.616,0,0,0-.445-.088c-1.136.486-2.283.973-2.765,2.219l.309.347c.934-.626,1.878-1.24,2.791-1.9C725.069,3787.294,725.066,3787,725.058,3786.8Z"/><path class="a" d="M745.2,3793.347a11.313,11.313,0,0,0-3.955-4.195A15.559,15.559,0,0,0,745.2,3793.347Z"/><path class="a" d="M733.059,3777.227c-.713,1.448-1.266,2.553-1.792,3.671-.046.1.087.286.137.434C733.176,3780.627,733.3,3779.217,733.059,3777.227Z"/><path class="a" d="M739.484,3780.941a6.935,6.935,0,0,1,.758-1.535,6.181,6.181,0,0,1,1.434-.856,2.235,2.235,0,0,0-2.583.63C738.653,3779.712,738.843,3780.343,739.484,3780.941Z"/><path class="a" d="M735.579,3771.813c.451-.48.927-.967,1.378-1.476.288-.323.542-.674.81-1.014a9.729,9.729,0,0,0-1.6.425C734.993,3770.277,734.931,3770.631,735.579,3771.813Z"/><path class="a" d="M726.12,3780.839a11.377,11.377,0,0,0-1.51,1.285c.4.084.942.365,1.165.206a28.652,28.652,0,0,0,2.353-2.042A4.01,4.01,0,0,0,726.12,3780.839Z"/><path class="a" d="M724.591,3782.141l.019-.016-.011,0Z"/><path class="a" d="M706.8,3747.686l-3.326,2.222.253.386a10.136,10.136,0,0,0,3.351-2.156Z"/><path class="a" d="M729.368,3769.871l-.25-.047-1.428,3.48.257.121,1.656-1.319Q729.485,3770.987,729.368,3769.871Z"/><path class="a" d="M729.608,3772.1l0,0v.007Z"/><path class="a" d="M701.754,3734.985l-4.536,1.663.072.345a12.039,12.039,0,0,0,4.584-1.684Z"/><path class="a" d="M748.266,3775.971l-3.224,1.075.154.43C746.42,3777.491,747.6,3777.385,748.266,3775.971Z"/><path class="a" d="M722.838,3725.448c.612.792,1.421.41,2.278.319l.485-.531a2.336,2.336,0,0,0-.664-.337c-.541-.077-1.092-.087-1.64-.111a5.284,5.284,0,0,0-.571.035C722.759,3725.035,722.723,3725.3,722.838,3725.448Z"/><path class="a" d="M738.378,3784.665a.837.837,0,0,0-.227.346c-.164.505.308,1.036.423,1.548l-.019-.015c0,.01-.008.02-.012.03-.1.042-.19.087-.285.128a2.069,2.069,0,0,1,.084.309l-.04.017.006.015-.009-.021c0,.005.035,0,.032,0,.047.109.115.209.162.319l.021-.019.631-.281.017.009-.013-.012c0-.009,0-.017,0-.025.021-.152.069-.312.089-.464,0,0,0-.008,0-.011,0-.021,0-.042,0-.062s0-.023,0-.034,0-.039,0-.058,0-.023,0-.035a.449.449,0,0,0-.02-.087c-.326-.932.079-1.141.913-1.017a8.343,8.343,0,0,0,.882.016,3.6,3.6,0,0,0-.582-.4C739.765,3784.644,739.045,3784.021,738.378,3784.665Z"/><path class="a" d="M719.731,3784.211c1.315-.573,2.621-.865,3.538-1.9C720.97,3782.8,720.325,3783.152,719.731,3784.211Z"/><path class="a" d="M733.784,3789.357c0,.008-.006.015-.009.023s.009.025.013.038l.011-.033C733.793,3789.376,733.79,3789.367,733.784,3789.357Z"/><path class="a" d="M734.692,3786.424a1.631,1.631,0,0,0-.623.136c-.911.679-.99,1.585-.284,2.8.335-.778.686-1.549.99-2.339C734.838,3786.854,734.724,3786.624,734.692,3786.424Z"/><path class="a" d="M719.093,3773.29c-.07-.144-.141-.286-.211-.429-.779.281-1.587.5-2.33.856-1.2.574-1.193.637-.522,1.893C716.034,3773.594,717.956,3773.924,719.093,3773.29Z"/><path class="a" d="M740.556,3774.836l.024.013.023-.024h-.015Z"/><path class="a" d="M737.876,3775.515c-.261.233-.1.929-.137,1.414l.381.126c.246-1.423,1.351-1.808,2.435-2.219C739.449,3774.179,738.6,3774.865,737.876,3775.515Z"/><path class="a" d="M724.507,3776.036c.647-.27,1.267-.608,2.192-1.068a2.51,2.51,0,0,0-2.56.377c-.139.078-.164.36-.242.548C724.1,3775.946,724.352,3776.1,724.507,3776.036Z"/><path class="a" d="M720.924,3773.363l3.693-1.8C723.273,3771.249,721.952,3771.8,720.924,3773.363Z"/><path class="a" d="M709.724,3746.934c.559-.544,1.212-.991,1.821-1.486.265-.216.517-.448.969-.842-2,.219-2.889,1.521-3.952,2.575C709.037,3747.5,709.349,3747.3,709.724,3746.934Z"/><path class="a" d="M708.548,3747.2l.014-.014-.006,0Z"/><path class="a" d="M717.367,3779.029c1.919-.367,2.682-.778,3.491-1.967C719.575,3777.734,718.306,3777.879,717.367,3779.029Z"/><path class="a" d="M737.013,3786.919a6.552,6.552,0,0,0-.275-1c-.245.271-.6.5-.706.822a5.306,5.306,0,0,0-.079,1.379c.188.131.426.385.517.341a.994.994,0,0,0,.484-.541A2.552,2.552,0,0,0,737.013,3786.919Z"/><path class="a" d="M736.893,3756.973l.02.009-.039-.06Z"/><path class="a" d="M734.6,3751.394c.288,1.062.547,2.137.835,3.2,0,0-.041.005-.043,0l.025.055.041-.033c.094.21.2.413.3.622l-.011-.011c.373.565.751,1.131,1.125,1.7q-1.067-2.8-2.132-5.6Z"/><path class="a" d="M710.764,3759.16c.288,1.061.547,2.136.835,3.2,0,0-.041,0-.043,0l.024.056.041-.034c.094.21.2.413.3.622l-.011-.011c.373.565.751,1.13,1.125,1.7q-1.067-2.8-2.132-5.6Z"/><path class="a" d="M706.833,3743.516l3.148-2.034A3.356,3.356,0,0,0,706.833,3743.516Z"/><path class="a" d="M723.965,3734.667c-.44-.229-.693-.812-1.021-1.229-.3,1.726.1,1.973,2.654,1.389A4.43,4.43,0,0,1,723.965,3734.667Z"/><path class="a" d="M743.713,3783.264l2.5-.909c-.993-.189-1.955-.306-2.674.449Z"/><path class="a" d="M700.337,3745.485l4.953-2.144A14.213,14.213,0,0,0,700.337,3745.485Z"/><path class="a" d="M705.293,3743.346l.056-.01.008-.018Z"/><path class="a" d="M717.427,3739.55l-1.128,2.137C716.826,3741.083,717.956,3740.335,717.427,3739.55Z"/><path class="a" d="M708.029,3698.068l1,2.287C709.121,3698.842,709.121,3698.842,708.029,3698.068Z"/><path class="a" d="M741.572,3782.25l-.045.019h.036Z"/><path class="a" d="M740.061,3783.992c-.265-.638-.194-1.139.583-1.379.3-.093.59-.226.884-.344a3.516,3.516,0,0,0-1.15,0,6.4,6.4,0,0,0-1.237.722Z"/><path class="a" d="M740.087,3784.02l-.026-.028c.007.016.01.031.018.047Z"/><path class="a" d="M716.479,3734.4c0,.008.009.014.012.022s0-.009.008-.014Z"/><path class="a" d="M717.952,3735.292a1.457,1.457,0,0,1-1.46-.874c-.314.512-.326.974.348,1.163.622.173,1.271.25,1.909.367A.939.939,0,0,0,717.952,3735.292Z"/><path class="a" d="M731.077,3736.137l-2.348,0c0,.128,0,.256-.006.384l2.26-.01Q731.029,3736.323,731.077,3736.137Z"/><path class="a" d="M717.376,3731.8l-.2,1.553.563.049q.01-.789.02-1.576Z"/><path class="a" d="M730.933,3757.911a7.211,7.211,0,0,0-.531.747c.122.061.32.2.354.171a10.051,10.051,0,0,0,.7-.792C731.186,3757.968,730.974,3757.865,730.933,3757.911Z"/><path class="a" d="M701.066,3737.329l.126-.036c.016-.005.032-.012.048-.019l-.042,0Z"/><path class="a" d="M698.1,3738.6l2.957-1.28a25.364,25.364,0,0,1-3.1.891C698.008,3738.339,698.112,3738.594,698.1,3738.6Z"/><path class="a" d="M711.2,3729.2c.005.009.009.018.013.028l.006-.02Z"/><path class="a" d="M729.582,3720.891l.485-.5c-.182-.052-.387-.18-.544-.137-.179.049-.316.25-.471.385Z"/><path class="a" d="M727.165,3738.756c.645.437,1.209,1.036,2.124.921l-1.954-1.239C727.278,3738.545,727.221,3738.65,727.165,3738.756Z"/><path class="a" d="M724.084,3736.355c-1.425.271-1.469.329-1.241,1.434Z"/><path class="a" d="M745.226,3787.345l-1.638-.7-.124.482Z"/><path class="a" d="M726.6,3752.006c.2.465.4.931.611,1.392.018.038.154.025.205.143l-.767-1.751C726.688,3751.885,726.582,3751.972,726.6,3752.006Z"/><path class="a" d="M730.25,3731.792a16.853,16.853,0,0,1-2.453.64c.042.122.136.363.126.367Z"/><path class="a" d="M721.1,3760.065c.138.315.138.314.138.314l1.659-.718s0,0-.138-.314Z"/><path class="a" d="M749.366,3782.225l-1.65-.256c0,.155,0,.311,0,.467Z"/><path class="a" d="M733.7,3734.915l-1.423.159,1.394.319C733.677,3735.234,733.687,3735.074,733.7,3734.915Z"/><path class="a" d="M719.673,3739.708c.137.04.284.132.407.106s.238-.165.455-.332c-.264-.046-.425-.124-.544-.083S719.777,3739.6,719.673,3739.708Z"/><path class="a" d="M704.413,3734a12,12,0,0,1,2.222-.481,3.744,3.744,0,0,1-.132-.424Z"/><path class="a" d="M733.345,3731.037l-1.467.455,1.522-.14C733.381,3731.246,733.363,3731.142,733.345,3731.037Z"/><path class="a" d="M727.286,3757.011c.117.324.029.179.026.23.377-.14.737-.318,1.114-.458-.027-.062.04.092-.1-.222Z"/><path class="a" d="M735.373,3779.061a1.935,1.935,0,0,0,.169-.394c.006-.029-.221-.153-.24-.134a2.013,2.013,0,0,0-.241.35Z"/><path class="a" d="M713.392,3733.8c-.047.016-.079.072-.118.11-.4-.924-.734-1.891-2.109-1.584-.133.029-.313-.155-.493-.337-.074-.076-.148-.15-.219-.21-.5.67-.33,1.134.45,1.391s1.579.5,2.369.748c.331-.031.662-.06.991-.106a2.5,2.5,0,0,0-.009-.285C713.967,3733.621,713.678,3733.708,713.392,3733.8Z"/><path class="a" d="M731.435,3771.132a1.849,1.849,0,0,0,.574-.018c.11-.038.166-.23.349-.511a2.716,2.716,0,0,0-.747.122C731.508,3770.78,731.49,3770.991,731.435,3771.132Z"/><path class="a" d="M696.635,3732.881a5.767,5.767,0,0,0-.649.063c-.043.009-.058.155-.086.238a4.537,4.537,0,0,0,.6-.016C696.545,3733.158,696.574,3733.014,696.635,3732.881Z"/><path class="a" d="M719.174,3725.825l.312,0,.145-.268a1.715,1.715,0,0,0-.407-.017C719.191,3725.55,719.189,3725.727,719.174,3725.825Z"/><path class="a" d="M706.023,3738.161l.064,0,.084-.011-.078-.01Z"/><path class="a" d="M704.89,3738.446l1.133-.285-1.148-.079C704.88,3738.2,704.885,3738.325,704.89,3738.446Z"/><path class="a" d="M718.477,3743.172c.019-.14.073-.277.035-.312a2.039,2.039,0,0,0-.389-.234c-.019.12-.1.289-.045.35C718.162,3743.076,718.331,3743.105,718.477,3743.172Z"/><path class="a" d="M702.992,3703.641l.025-.066,0-.009h-.018C702.994,3703.592,702.993,3703.616,702.992,3703.641Z"/><path class="a" d="M702.96,3704.746c.011-.368.022-.737.032-1.1l-.388,1.027Z"/><path class="a" d="M702.892,3750.79q.183.418.366.837s0,0,.021-.006c-.1-.287-.19-.58-.292-.867C702.951,3750.768,702.893,3750.792,702.892,3750.79Z"/><path class="a" d="M718.21,3758.814l.438.708q-.14-.367-.281-.733Z"/><path class="a" d="M703.9,3698.265l-.316.006-.079.283c.1,0,.234.034.307-.014S703.877,3698.361,703.9,3698.265Z"/><path class="a" d="M730.635,3774.131h0l-.266-.117c-.013.052-.05.141-.036.15a1.906,1.906,0,0,0,.26.122l.042-.154Z"/><path class="a" d="M714.775,3731.708l.19-.392c-.1,0-.231-.031-.285.019a1.914,1.914,0,0,0-.258.379Z"/><path class="a" d="M732.589,3748.383h0l-.269-.125c-.022.089-.09.206-.056.259.045.07.169.09.259.132l.065-.265Z"/><path class="a" d="M733.9,3782.081h0l.15-.01a1.724,1.724,0,0,0-.063-.249c-.005-.013-.093.006-.143.01C733.862,3781.915,733.879,3782,733.9,3782.081Z"/><path class="a" d="M707.348,3758.494c.01.1.019.192.029.287l.108.115a1.82,1.82,0,0,0-.029-.294C707.447,3758.56,707.385,3758.53,707.348,3758.494Z"/><path class="a" d="M701.174,3741.123c-.046,0-.092.054-.138.084l.2.068.14-.089A.681.681,0,0,0,701.174,3741.123Z"/><path class="a" d="M729.543,3735.093l-1.3-.515A1.056,1.056,0,0,0,729.543,3735.093Z"/><path class="a" d="M728.248,3734.578l-.021-.027-.287-.156.28.171Z"/><path class="a" d="M704.28,3734.051c.01.006.019.013.03.019l.114-.049-.1.022Z"/><path class="a" d="M703.886,3733.852a1.5,1.5,0,0,0-.5.157,2.14,2.14,0,0,0,.451.11,1.974,1.974,0,0,0,.441-.068A.985.985,0,0,0,703.886,3733.852Z"/><path class="a" d="M701.653,3703.268c.043.032.086.09.127.089s.082-.062.121-.1l-.207-.147C701.681,3703.164,701.667,3703.216,701.653,3703.268Z"/><path class="a" d="M707.025,3726.554l.01-.035c-.005-.012-.011-.023-.016-.037,0,.011-.007.02-.009.03S707.021,3726.541,707.025,3726.554Z"/><path class="a" d="M706.953,3727.487a1.742,1.742,0,0,0,.2-.5,1.154,1.154,0,0,0-.126-.435,2.5,2.5,0,0,0-.112.45A2.717,2.717,0,0,0,706.953,3727.487Z"/><path class="a" d="M703.344,3706.033l-.019.021.007,0,.866,1.135.019,0-.008-.023Z"/><path class="a" d="M703.706,3705.171c.007-.094.011-.163.017-.231-.033.027-.089.053-.09.082S703.669,3705.1,703.706,3705.171Z"/><path class="a" d="M701.24,3737.274a1.879,1.879,0,0,0,.294,0,2.393,2.393,0,0,0,.323-.076,1.915,1.915,0,0,0-.347-.017A1.224,1.224,0,0,0,701.24,3737.274Z"/><path class="a" d="M720.78,3734.259c-.046-.008-.1-.038-.135-.021s-.055.083-.1.157Z"/><path class="a" d="M731.784,3731.521l.093-.029c-.029,0-.061,0-.089,0a6.444,6.444,0,0,0-1.42.246l-.119.051a.856.856,0,0,1,.115-.024C730.837,3731.684,731.312,3731.6,731.784,3731.521Z"/><path class="a" d="M719.832,3732.586l.045-.015-.036,0Z"/><path class="a" d="M719.876,3732.571a1.65,1.65,0,0,0,.3.021,2.049,2.049,0,0,0,.323-.07,1.893,1.893,0,0,0-.342-.027A1.3,1.3,0,0,0,719.876,3732.571Z"/><path class="a" d="M745.371,3787.424l-.055-.068-.09-.011.079.034Z"/><path class="a" d="M745.63,3787.6l-.259-.178a1.56,1.56,0,0,0,.137.156C745.533,3787.6,745.589,3787.595,745.63,3787.6Z"/><path class="a" d="M726.778,3722.4l-.1-.007.047.086Z"/><path class="a" d="M706.172,3738.154a1.859,1.859,0,0,0,.249.024c.038,0,.076-.047.115-.073Z"/><path class="a" d="M703.673,3731.566l-.23.223c.057-.034.113-.069.166-.109C703.641,3731.656,703.652,3731.6,703.673,3731.566Z"/><path class="a" d="M703.443,3731.789l-.1.062-.278.344.3-.332Z"/><path class="a" d="M731.54,3760.529c-.015-.149-.03-.3-.045-.445l.173-.46.026-.054-.034.052-.185.455C731.5,3760.227,731.518,3760.378,731.54,3760.529Z"/><path class="a" d="M743.619,3784.792a1.847,1.847,0,0,0,.217.147q-.119-.144-.236-.289C743.605,3784.7,743.592,3784.768,743.619,3784.792Z"/><path class="a" d="M732.937,3747.579l-.248-.273a2.311,2.311,0,0,0,.126.209C732.839,3747.549,732.9,3747.559,732.937,3747.579Z"/><path class="a" d="M746.984,3788.286c-.033-.01-.078.019-.117.031l.317.049A1.832,1.832,0,0,0,746.984,3788.286Z"/><path class="a" d="M743,3778.466l.126-.014-.062-.084Z"/><path class="a" d="M708.034,3737.064l.021.089.086-.073Z"/><path class="a" d="M709.873,3702.107l.008-.019-.723-.812-.027-.007.016.028Z"/><path class="a" d="M715.992,3766.789c.09.2.179.406.268.61l.017.007c-.092-.212-.184-.425-.277-.637Z"/><path class="a" d="M727.512,3785.363c.694-.365,1.4-.71,2.071-1.111.127-.076.119-.375.172-.572-.2-.032-.428-.138-.6-.083a2.481,2.481,0,0,0-1.659,1.762c.008.11.017.22.025.33C727.516,3785.581,727.514,3785.472,727.512,3785.363Z"/><path class="a" d="M727.844,3724.262l.045-.01c-.011-.005-.024-.009-.034-.015l-.773-.037,0,.009Z"/><path class="a" d="M733.8,3728.391l-.134.013.126.006Z"/><path class="a" d="M725.088,3715.338c.575.118,1.256.49,1.705.306a37.172,37.172,0,0,0,3.923-2.041c.2-.113.29-.422.431-.64-.245-.073-.542-.273-.728-.2-1.832.729-3.647,1.5-5.467,2.266l-.024-.008.148.335Z"/><path class="a" d="M724.882,3736.383l.17-.025h-.162l-.783-.031-.023.026.015,0Z"/><path class="a" d="M747.849,3788.9l.008-.018-.588-.5-.085-.014.076.033Z"/><path class="a" d="M724.9,3738.98l-.465-.182-.008.021.465.181.145-.019Z"/><path class="a" d="M714.325,3696.805l-.021.024.039-.017Z"/><path class="a" d="M744.09,3785.133l-.153-.1a.276.276,0,0,0,.047.057A.33.33,0,0,0,744.09,3785.133Z"/><path class="a" d="M743.937,3785.034c-.013-.018-.024-.037-.037-.055l-.063-.04.052.064Z"/><path class="a" d="M738.25,3786.682l-.051-.034a.249.249,0,0,0-.042-.049.361.361,0,0,0-.1-.047l.142.1c.014.019.026.04.041.059l.018-.008c0-.006-.005-.01-.008-.017Z"/><path class="a" d="M730.355,3735.135l.77.04,1.083-.093.065-.008-.059-.013-1.082.094-.77-.041-.782-.032c-.013.005-.024.006-.037.011l.029.012Z"/><path class="a" d="M713.509,3697.521l-.033.014h0l.077-.01a.772.772,0,0,1,.119,0h0l-.119,0c.316-.137.261-.125.261-.125s-.023.017-.025.011a2.724,2.724,0,0,0,.446-.549c-.2.084-.281.118-.6.253a.127.127,0,0,0-.011-.018l-.318.137.007.02,0-.007h0s-.36.162-.557.25a1.979,1.979,0,0,0,.754.024Z"/><path class="a" d="M731.329,3739.936l-2-.261c-.016,0-.029,0-.045,0l.036.023,2,.256.78.032.16-.014-.154-.007Z"/><path class="a" d="M749.57,3782.223l-.125-.007-.079.01.072.011Z"/><path class="a" d="M726.235,3748.868c.1-.04.191-.081.285-.122l-.115-.276Q726.321,3748.669,726.235,3748.868Z"/><path class="a" d="M726.227,3748.888l.008-.02-.027.012Z"/><path class="a" d="M726.521,3748.746c0,.006.005.013.008.019l.138-.014-.127-.013Z"/><path class="a" d="M710.777,3731.623l-.019.008a.14.14,0,0,1,.008.019Z"/><path class="a" d="M705.458,3705.835l.052.03,0-.006h0Z"/><path class="a" d="M726.265,3748.1l-.263-.594c.009-.257.018-.514.027-.771l-.013-.006-.037.77.275.62.138.321.012.03.01-.024Z"/><path class="a" d="M696.449,3707.474a.525.525,0,0,0-.092-.21l-.026-.059-.327.147h0l.138.33.334-.145-.027-.063Z"/><path class="a" d="M738.3,3769.509l-.059-.03-.218-.074.212.09Z"/><path class="a" d="M728.758,3747.774l-.032.014h0c-.013.107-.026.216-.039.323.021-.1.041-.207.062-.311C728.752,3747.791,728.756,3747.783,728.758,3747.774Z"/><path class="a" d="M738.021,3769.406l-.238-.1-.015.019.008,0Z"/><path class="a" d="M728.993,3747.7a3.582,3.582,0,0,0,.366-.188l.011,0h0l1.38-.6c-.654-.091-1.1-.242-1.542-.289-.916-.095-.1.533-.31.729l-.054.01.012.028c.042.1-.109.275-.164.413.1-.04.291-.123.291-.122Z"/><path class="b" d="M732.051,3792.365l-.043.045-.154-.354h.06c-.117-.4-.176-.791.407-.939.878-.225,1.2-.94,1.466-1.7,0-.012-.01-.026-.012-.038s.007-.014.01-.023c-.706-1.212-.627-2.118.284-2.8a1.626,1.626,0,0,1,.623-.137c.032.2.147.432.083.6-.3.79-.655,1.561-.99,2.338.006.01.01.019.014.029s-.008.021-.011.032c.075.25.236.524.175.736-.422,1.465-.884,2.918-1.359,4.368a6.213,6.213,0,0,1-1.126,2.16C731.674,3795.241,731.854,3793.807,732.051,3792.365Zm5.105.42-.007.016c-.051-.116-.1-.233-.152-.351l.015,0c-.136-.569-.69-1.3.53-1.339-.006,0-.015-.012-.02-.01l.064-.028a.246.246,0,0,0,.054-.043.734.734,0,0,1,.1-.066.086.086,0,0,1,.056,0c.014,0,.03.01.04,0l.031-.012.149.343L738,3791.3h0l.019.008L738,3791.3l1.081,4.94C737.579,3795.458,737.654,3793.983,737.156,3792.785Zm4.092-3.633a11.309,11.309,0,0,1,3.954,4.2A15.562,15.562,0,0,1,741.249,3789.152Zm-12.615.655a3.974,3.974,0,0,0,1.524-1.945,2.992,2.992,0,0,1,2.723-2.212c-.89,1.149-2.134,2.06-2.414,3.617a.843.843,0,0,1-.3.405c-1.136.99-2.279,1.971-3.718,3.211A5.119,5.119,0,0,1,728.634,3789.807Zm-6.786-.877c.482-1.246,1.628-1.733,2.765-2.219a.618.618,0,0,1,.445.088c.008.2.011.5-.11.584-.913.655-1.856,1.268-2.791,1.9C722.055,3789.161,721.951,3789.045,721.848,3788.929Zm25.411-.53-.076-.033.086.013.588.5-.008.018Zm-11.306-.281a5.327,5.327,0,0,1,.079-1.379c.1-.316.461-.551.706-.821a6.453,6.453,0,0,1,.275,1,2.554,2.554,0,0,1-.06,1,1,1,0,0,1-.484.541.061.061,0,0,1-.023,0C736.343,3788.465,736.127,3788.239,735.953,3788.118Zm10.914.2c.039-.011.084-.04.117-.031a1.9,1.9,0,0,1,.2.08Zm-1.359-.737a1.653,1.653,0,0,1-.137-.156l.259.178C745.588,3787.6,745.533,3787.6,745.508,3787.58Zm-.2-.2-.079-.034c.03,0,.06.008.09.011l.055.068Zm-6.973-.353s-.008,0-.016,0h0l.029-.012a2.036,2.036,0,0,0-.084-.309c.1-.042.19-.087.285-.129a.265.265,0,0,0,.011-.03l.019.015c-.115-.512-.587-1.042-.423-1.548a.833.833,0,0,1,.227-.346c.667-.644,1.386-.021,2.063.2a3.563,3.563,0,0,1,.582.4c-.157,0-.285,0-.394,0a3.2,3.2,0,0,1-.489-.016c-.833-.123-1.239.086-.913,1.018a.431.431,0,0,1,.02.087c0,.011,0,.023,0,.034s0,.037,0,.058,0,.022,0,.033,0,.042-.006.063a.033.033,0,0,1,0,.01c-.019.153-.067.313-.089.465a.215.215,0,0,0,0,.025l.013.012-.018-.009-.631.28-.022.019C738.448,3787.236,738.38,3787.135,738.332,3787.026Zm5.132.1c.041-.161.082-.321.124-.483q.819.35,1.638.7Zm-5.162-.1a.074.074,0,0,1,.007.015Zm0,0,0-.006s.007,0,.014,0Zm-.1-.38.051.033h0a.12.12,0,0,0,.008.016.078.078,0,0,1-.018.008C738.226,3786.687,738.213,3786.667,738.2,3786.648Zm-.142-.1a.394.394,0,0,1,.1.047.232.232,0,0,1,.042.049Zm-10.564-1.193a2.48,2.48,0,0,1,1.659-1.763c.174-.054.4.052.6.084-.053.2-.046.5-.172.572-.671.4-1.377.746-2.07,1.111,0,.109,0,.217.007.326C727.51,3785.579,727.5,3785.47,727.494,3785.36Zm5.387.291c0-.006.01-.013.016-.019l-.009.019Zm11.1-.559a.3.3,0,0,1-.048-.057l.153.1A.351.351,0,0,1,743.984,3785.091Zm-.1-.088-.051-.065.063.04c.013.018.025.037.037.055Zm-.269-.211c-.028-.024-.014-.094-.019-.142l.236.289A1.839,1.839,0,0,1,743.62,3784.792Zm-20.351-2.478c-.917,1.031-2.224,1.323-3.538,1.9C720.324,3783.152,720.97,3782.8,723.269,3782.314Zm16.792,1.677.026.029-.008.018C740.071,3784.023,740.067,3784.008,740.061,3783.991Zm-.919-1a6.3,6.3,0,0,1,1.237-.722,3.511,3.511,0,0,1,1.149,0c-.293.118-.582.251-.883.344-.777.24-.847.74-.583,1.379Q739.6,3783.494,739.141,3782.995Zm4.393-.192c.719-.755,1.681-.638,2.675-.449l-2.5.909Zm4.181-.834,1.65.255-1.654.212C747.712,3782.28,747.714,3782.125,747.715,3781.969Zm-23.105.156a11.311,11.311,0,0,1,1.51-1.285,4.007,4.007,0,0,1,2.009-.552,28.717,28.717,0,0,1-2.354,2.043.309.309,0,0,1-.183.048A6.6,6.6,0,0,1,724.609,3782.125Zm16.918.144.045-.018-.009.02Zm7.838-.044.08-.01.125.008-.132.013Zm-24.766-.1.01,0c-.007,0-.012.01-.019.016Zm9.3-.041-.054-.25c.05,0,.137-.023.143-.01a1.8,1.8,0,0,1,.063.25l-.151.01Zm-2.63-1.182c.525-1.118,1.079-2.223,1.791-3.671.237,1.99.117,3.4-1.654,4.1C731.356,3781.185,731.221,3781,731.268,3780.9Zm7.826-1.719a2.233,2.233,0,0,1,2.582-.63,6.167,6.167,0,0,0-1.434.857,6.965,6.965,0,0,0-.758,1.534C738.843,3780.343,738.652,3779.712,739.094,3779.18Zm-4.031-.3a1.971,1.971,0,0,1,.24-.35c.019-.019.246.1.24.133a1.953,1.953,0,0,1-.17.394Zm-14.2-1.822c-.809,1.19-1.572,1.6-3.491,1.968C718.305,3777.879,719.575,3777.733,720.858,3777.062Zm22.21,1.306.062.084-.126.014Zm2.128-.891c-.051-.144-.1-.287-.153-.43l3.224-1.076a2.739,2.739,0,0,1-2.895,1.506Zm-7.456-.548c.032-.485-.124-1.18.137-1.414.727-.65,1.572-1.336,2.679-.679-1.085.412-2.19.8-2.435,2.219Zm-13.842-1.036c.077-.189.1-.47.242-.548a2.509,2.509,0,0,1,2.559-.376c-.925.459-1.545.8-2.192,1.067a.216.216,0,0,1-.087.016A2.732,2.732,0,0,1,723.9,3775.893Zm-7.346-2.177c.743-.355,1.551-.574,2.33-.856.07.144.141.286.212.429-1.136.635-3.059.3-3.063,2.319C715.358,3774.354,715.347,3774.291,716.551,3773.716Zm24.052,1.109a14.565,14.565,0,0,1,5.425-3.83l0-.015.02.008-.017.008c.052.292.222.77.127.829-1.667,1.033-3.363,2.019-5.064,3a.313.313,0,0,1-.158.034C740.828,3774.855,740.709,3774.829,740.6,3774.825Zm-.047.01.031-.012.015,0-.023.024Zm-10.223-.673c-.014-.009.023-.1.036-.149l.266.117c-.014.052-.028.1-.042.154A1.79,1.79,0,0,1,730.333,3774.163Zm-2.644-.859q.715-1.741,1.428-3.48l.251.047.234,2.234-1.655,1.32Zm-3.073-1.743-3.692,1.8C721.952,3771.8,723.273,3771.249,724.616,3771.561Zm4.986.544.006,0,0,.01Zm6.565-2.356a9.717,9.717,0,0,1,1.6-.425c-.269.34-.523.691-.811,1.014-.452.509-.927,1-1.378,1.476C734.931,3770.631,734.992,3770.277,736.167,3769.749Zm-22.038,1.885a.54.54,0,0,1-.119-.47,1.354,1.354,0,0,1,.525-.642c1.836-.8,3.688-1.562,5.536-2.334,2.439.648,4.242-1,6.264-1.78s3.963-1.794,5.916-2.751c.326-.16.812-.716.758-.805-.461-.751.367-.491.537-.686a5.031,5.031,0,0,1,1.1-.807c.711-.455,1.464-.854,2.147-1.348.958-.691,1.832-.526,2.917.259-.681.443-1.192.8-1.726,1.12a89.47,89.47,0,0,1-15.671,7.775c-2.56.926-5.171,1.712-7.763,2.549a.49.49,0,0,1-.421-.079Zm17.483-.5c-.06,0-.119-.008-.177-.007.055-.141.073-.353.176-.407a2.708,2.708,0,0,1,.746-.122c-.183.282-.238.474-.349.512a.684.684,0,0,1-.223.031C731.728,3771.146,731.67,3771.142,731.612,3771.139Zm6.622-1.643-.212-.09.217.073.059.03Zm-.458-.174-.008,0,.015-.019.238.1Zm-3.912-2.63a2.693,2.693,0,0,1,1.218-.9c1.811-.288,2.979-1.587,4.383-2.526a10.79,10.79,0,0,1,1.73-.769c.062.145.125.289.187.433-1.212.923-2.375,1.925-3.655,2.741a21.885,21.885,0,0,1-2.622,1.069,1.446,1.446,0,0,0-.961,1.936C733.305,3768.051,733.183,3767.389,733.863,3766.692Zm6.489,1.306,2.77-2.244c.959,1.007.97,1.069-.335,1.711-.723.355-1.509.588-2.267.875C740.464,3768.226,740.408,3768.112,740.352,3768Zm-24.092-.6-.269-.61.009-.02.277.637Zm-4.353-4.406.011.01c-.094-.208-.2-.412-.3-.621l-.041.033-.025-.056s.01,0,.02,0,.02,0,.023,0c-.289-1.062-.547-2.137-.836-3.2l.137-.068q1.066,2.8,2.132,5.6C712.659,3764.123,712.281,3763.558,711.908,3762.993Zm19.567-2.917.186-.455.033-.052-.026.053c-.058.154-.115.308-.173.46l.046.446Zm-10.379-.011,1.658-.718c.13.3.138.313.139.313l-1.659.719S721.232,3760.378,721.1,3760.065Zm-2.885-1.251.158-.025.28.733Zm-10.833-.032c-.01-.1-.02-.192-.03-.287.038.036.1.066.109.108a1.784,1.784,0,0,1,.029.294Zm23.024-.123a7.1,7.1,0,0,1,.531-.747c.042-.047.253.057.519.126a10.1,10.1,0,0,1-.7.792.024.024,0,0,1-.015,0A1.867,1.867,0,0,1,730.4,3758.658Zm-3.072-1.428c.019,0,.038.009-.043-.219l1.042-.45c.093.214.091.211.091.207s0,0,.008.015c-.377.14-.737.318-1.114.458C727.313,3757.226,727.321,3757.228,727.33,3757.23Zm9.564-.257-.02-.051.04.06Zm-1.148-1.747.011.011c-.094-.209-.2-.412-.3-.622l-.041.033c-.008-.018-.016-.036-.025-.055,0,0,.011,0,.021,0a.051.051,0,0,1,.022,0c-.288-1.062-.547-2.136-.835-3.2l.136-.067q1.068,2.8,2.132,5.6C736.5,3756.357,736.119,3755.792,735.745,3755.226Zm-8.538-1.828c-.211-.46-.41-.926-.611-1.391-.013-.034.091-.121.05-.217.268.612.494,1.127.766,1.751C727.36,3753.422,727.225,3753.437,727.207,3753.4Zm-23.949-1.771c-.123-.279-.244-.558-.366-.837,0,0,.058-.022.1-.036.1.287.19.58.292.867a.06.06,0,0,1-.02.007Zm.213-1.72,3.325-2.222c.092.152.186.3.278.453a10.131,10.131,0,0,1-3.351,2.156C703.639,3750.166,703.555,3750.037,703.472,3749.907Zm22.737-1.027.027-.012c0,.007,0,.014-.008.021Zm.2-.41c0-.01-.009-.019-.012-.031l-.138-.32c-.092-.207-.184-.415-.275-.62.012-.257.025-.513.037-.771l.013.006c-.01.257-.019.515-.028.772.087.2.175.4.263.594l.151.346c0,.008-.007.015-.01.024l.115.275c-.1.041-.19.083-.286.122C726.292,3748.735,726.349,3748.6,726.406,3748.47Zm.115.275.018-.008.128.013-.138.013C726.526,3748.759,726.524,3748.753,726.521,3748.746Zm5.744-.229c-.034-.052.033-.17.055-.259.09.043.18.084.27.125h0l-.066.265C732.434,3748.607,732.309,3748.587,732.265,3748.516Zm-3.539-.727-.032.013c.055-.139.206-.317.164-.413l-.012-.029.054-.01c.206-.2-.607-.825.31-.73.44.047.888.2,1.542.289l-1.38.6h0s0,0,0,0l-.01,0a3.337,3.337,0,0,1-.366.188c0-.007-.007-.013-.009-.019s-.128.053-.228.1a.123.123,0,0,1-.009.024c-.021.1-.041.208-.062.312C728.7,3748,728.712,3747.9,728.726,3747.789Zm4.09-.273c-.047-.067-.086-.137-.126-.209l.248.272C732.9,3747.559,732.839,3747.548,732.815,3747.516Zm-24.254-.335c1.063-1.054,1.954-2.355,3.952-2.575-.453.394-.7.626-.97.843-.608.494-1.262.941-1.82,1.486a1.106,1.106,0,0,1-.717.408A.788.788,0,0,1,708.562,3747.18Zm24.075.067-.064-.06h0c.024.014.049.028.072.04s.031.053.045.081Zm-24.081-.071.007,0-.013.014Zm23.725-.147h.041a.144.144,0,0,1,.086.013,1.809,1.809,0,0,1,.166.144h0Zm0,0h0Zm-26.989-3.688-4.953,2.144A14.2,14.2,0,0,1,705.291,3743.341Zm4.691-1.859-3.148,2.034A3.355,3.355,0,0,1,709.981,3741.482Zm-4.624,1.837-.009.017-.056.01Zm12.72-.344c-.051-.061.026-.23.045-.35a2.057,2.057,0,0,1,.39.233c.039.035-.016.173-.035.313C718.331,3743.1,718.162,3743.076,718.078,3742.976Zm-.651-3.426c.53.785-.6,1.532-1.128,2.137C716.637,3741.044,717.124,3740.123,717.427,3739.55Zm-16.391,1.657c.047-.031.092-.085.138-.085a.721.721,0,0,1,.2.064l-.14.089Zm30.286-1.251-2-.255-.036-.024c.015,0,.029,0,.045,0l2,.262.78.031.154.007-.161.014Zm-11.649-.248c.1-.107.191-.264.317-.308s.28.036.544.083c-.216.167-.324.3-.455.332a.215.215,0,0,1-.044,0A1.519,1.519,0,0,1,719.673,3739.708Zm7.492-.953c.056-.106.113-.211.17-.317l1.954,1.239a1.869,1.869,0,0,1-.226.014A3.433,3.433,0,0,1,727.165,3738.755Zm-2.735.064.008-.021.466.182h.135l-.145.019Zm-26.47-.61a25.558,25.558,0,0,0,3.1-.892l-2.957,1.28C698.112,3738.594,698.008,3738.339,697.96,3738.209Zm6.915-.128,1.148.079-1.133.285C704.885,3738.325,704.88,3738.2,704.875,3738.082Zm1.545.1a1.809,1.809,0,0,1-.249-.024l.363-.049c-.037.026-.075.073-.112.073Zm-.4-.017.071-.017.078.01-.085.011Zm18.061-1.806-1.242,1.433C722.615,3736.684,722.659,3736.625,724.084,3736.355Zm-22.886.917.042,0-.048.019-.127.036Zm.042,0a1.181,1.181,0,0,1,.27-.088,1.928,1.928,0,0,1,.347.016,2.422,2.422,0,0,1-.323.076c-.031,0-.063,0-.1,0C701.372,3737.283,701.307,3737.278,701.24,3737.274Zm6.794-.21.107.016-.086.073Zm-10.816-.416,4.536-1.663.12.324a12.049,12.049,0,0,1-4.584,1.684Zm31.51-.513,2.348,0c-.031.124-.063.248-.093.372l-2.26.01C728.725,3736.39,728.728,3736.263,728.729,3736.135Zm-4.63.216-.014,0,.023-.027.782.031h.162l-.17.025Zm-7.259-.771c-.675-.188-.661-.65-.348-1.163l-.012-.022.019.009s0,.009-.007.013a1.455,1.455,0,0,0,1.46.874.939.939,0,0,1,.8.656C718.111,3735.83,717.461,3735.754,716.84,3735.581Zm15.433-.506,1.424-.159c-.01.158-.019.318-.029.477Zm-1.918.06-.783-.03-.029-.011c.012,0,.023-.006.036-.011l.782.032.77.04,1.082-.093.059.013-.065.008-1.083.093Zm-2.108-.556,1.3.515a1.086,1.086,0,0,1-.374.073A1.189,1.189,0,0,1,728.247,3734.578Zm-5.3-1.141c.327.418.58,1,1.021,1.23a2.408,2.408,0,0,0,1.114.152c.175,0,.351,0,.519.008a8.937,8.937,0,0,1-1.809.284C722.863,3735.112,722.741,3734.623,722.945,3733.438Zm5.274,1.129-.279-.171.287.156c.007.01.014.017.021.027C728.238,3734.573,728.228,3734.571,728.219,3734.567Zm-7.573-.329c.031-.017.089.012.134.021l-.235.136C720.589,3734.321,720.607,3734.26,720.646,3734.238Zm-16.806-.119a2.16,2.16,0,0,1-.452-.11,1.491,1.491,0,0,1,.5-.157.974.974,0,0,1,.394.2,2.259,2.259,0,0,1-.414.069Zm.44-.068.039-.009.1-.022-.114.049Zm2.224-.96a3.691,3.691,0,0,0,.131.424,12.03,12.03,0,0,0-2.222.481Zm4.4.082c-.78-.256-.949-.721-.45-1.391.07.06.144.134.218.211.18.182.36.366.493.337,1.375-.307,1.712.66,2.11,1.585.039-.038.07-.1.118-.111.286-.1.575-.184.862-.274a2.439,2.439,0,0,1,.009.286c-.328.046-.659.074-.99.106C712.484,3733.673,711.692,3733.431,710.9,3733.174Zm6.276.175q.1-.776.2-1.553l.387.026c-.008.525-.013,1.051-.02,1.576Zm-21.114-.168H695.9c.029-.082.043-.229.087-.237a5.9,5.9,0,0,1,.649-.063c-.061.132-.09.277-.138.285a2.232,2.232,0,0,1-.3.016Zm31.731-.749a16.875,16.875,0,0,0,2.453-.64l-2.326,1.007C727.933,3732.8,727.839,3732.554,727.8,3732.432Zm-7.92.139a1.325,1.325,0,0,1,.276-.076,1.926,1.926,0,0,1,.343.028,2.013,2.013,0,0,1-.323.07l-.05,0A2.144,2.144,0,0,1,719.877,3732.572Zm-.037,0,.037,0-.045.015Zm-16.5-.718.1-.062-.077.075-.3.332Zm7.022-.053.075-.032.026-.01c0,.008-.024.023-.027.031s-.02.01-.021.012a.065.065,0,0,0-.029,0l-.019,0S710.364,3731.8,710.364,3731.8Zm20-.056a6.486,6.486,0,0,1,1.42-.246c.029,0,.061,0,.09,0l-.093.03c-.472.084-.947.162-1.42.247a.812.812,0,0,0-.115.024Zm-26.695-.175c-.022.039-.032.091-.065.114a1.737,1.737,0,0,1-.166.109Zm6.826.175-.014.008-.02.007Zm.108-.377s.012-.008.024-.012l0-.007.011-.027.006-.02.086-.037c0,.008,0,.015,0,.023s-.01.021-.01.023v0c0,.008-.076.031-.072.039s-.006,0-.013.008c.043.093.085.186.127.28l-.258.11A.416.416,0,0,0,710.607,3731.363Zm4.072-.029c.036-.035.112-.03.189-.024.032,0,.066,0,.1,0l-.19.392-.354.007A1.9,1.9,0,0,1,714.68,3731.335Zm-3.922.3.019-.009-.01.027Zm22.587-.594.054.315-1.522.14Zm-22.133-1.807c.027.053.051.1.075.158.346.77.373,1.451-.556,1.872A19.267,19.267,0,0,1,711.212,3729.23Zm-16.018,1.3c0-.115,0-.23,0-.347,1.135-.354,2.26-.741,3.406-1.052a5.7,5.7,0,0,0,3.011-1.492,1.7,1.7,0,0,1,.923-.375c1.108-.2,2.224-.358,3.475-.554-.147.3-.222.746-.418.806-1.148.354-2.11,1.339-3.5.967-.33-.089-.787.338-1.2.5-1.53.608-3.055,1.236-4.608,1.777a.5.5,0,0,1-.161.025A4.863,4.863,0,0,1,695.194,3730.533Zm28.777-1.188c-.69-.047-.985-.5-.816-1.2.015-.209.031-.417.047-.627-.014.211-.028.419-.041.63,1.006,1.185,2.314.924,3.461.474a4.712,4.712,0,0,1,2.47-.322c.73.1,1.48.028,2.218.077a1.331,1.331,0,0,1,1.018.563c-1.215.053-2.431.1-3.646.164-.78.044-1.557.136-2.337.18-.592.032-1.188.082-1.781.082C724.365,3729.364,724.168,3729.358,723.971,3729.345ZM711.2,3729.2l.019.008-.006.02C711.207,3729.218,711.2,3729.21,711.2,3729.2Zm22.468-.8.134-.012-.009.019Zm-15.826-.056a22.5,22.5,0,0,1-2.709-.835c-.331-.129-.566-.5-.844-.765.165-.191.329-.384.495-.575l-.025-.01a7.212,7.212,0,0,1,4.264,2.116c-.361.027-.661.1-.925.1A1.023,1.023,0,0,1,717.84,3728.347ZM706.913,3727a2.469,2.469,0,0,1,.112-.45c0-.013-.011-.028-.015-.041s.006-.019.009-.031c.006.013.011.025.016.037s-.007.022-.01.034a1.164,1.164,0,0,1,.126.435,1.74,1.74,0,0,1-.2.5A2.777,2.777,0,0,1,706.913,3727Zm7.37-.26,0,0-.011.014Zm-19.83-1.212a9.011,9.011,0,0,1,4.847-1.449c.281-.011.755.456.836.776.129.511-.047.938-.815.9a5.343,5.343,0,0,0-.576.009c-.037,0-.075.009-.112.012-.534.045-1.071.146-1.6.207l-.008.013Zm28.384-.084c-.115-.149-.079-.414-.112-.624a5.22,5.22,0,0,1,.571-.035c.548.024,1.1.034,1.639.112a2.3,2.3,0,0,1,.664.336l-.484.531c-.443.047-.874.172-1.27.172A1.178,1.178,0,0,1,722.838,3725.448Zm-3.665.377c.015-.1.017-.275.05-.281a1.722,1.722,0,0,1,.407.017c-.048.09-.1.179-.145.268Zm-17.09-2.029-.013.028c0-.01.008-.019.01-.03l-.421-.3.6-.141c0-.008.007-.015.01-.024l0,.023c.732-.1,1.462-.246,2.2-.276.282-.012.576.235.864.365-.211.213-.415.433-.635.636a8.32,8.32,0,0,1-.72.477l1.114.176a2.682,2.682,0,0,1-1.059.239A2.378,2.378,0,0,1,702.083,3723.8Zm3,.934.048-.017.014,0a.265.265,0,0,1-.021.018Zm22.809-.478c1.49-.31,2.979-.628,4.474-.914.192-.037.416.1.677.176a5.947,5.947,0,0,1-3.49,1.047A3.925,3.925,0,0,1,727.889,3724.252Zm-.812-.043,0-.009.774.036c.01.006.023.01.034.015l-.045.01Zm-18.949-1.229a2.6,2.6,0,0,0,1.452-1.792,1.761,1.761,0,0,0,1.747-1.257l-.009,0-.016-.021.032,0c0,.008-.006.014-.008.021.486.219.807.587.379,1.041a27.2,27.2,0,0,1-2.361,2.193.73.73,0,0,1-.474.186A1.12,1.12,0,0,1,708.128,3722.98Zm-13.833-2.474c1.745-.642,3.7-.653,5.4-1.5a2.287,2.287,0,0,1,.6,2.081c-1.607,1.22-3.9.891-5.538,2.149C695.149,3722.248,693.766,3721.564,694.295,3720.507Zm32.387,1.89.1.007-.05.079Zm-20.476-1.516c.139,0,.309,0,.472,0h.206a.077.077,0,0,0,0,.013c.21.131.452.257.724.43a1.169,1.169,0,0,1-.455.1C706.745,3721.429,706.488,3721.141,706.206,3720.881Zm22.846-.241c.154-.134.292-.336.471-.385.156-.044.361.085.544.137l-.485.5Zm-22.169.242a.772.772,0,0,1,.024-.094l.023.086.1.009h-.15Zm8.535-1.744.019.008-.021-.022a.075.075,0,0,0,0,.014c-.832-.336-1.886-.468-1.658-1.782a11.7,11.7,0,0,0,2.278-2.546c1.966.225,2.314,2.072,3.7,3.2-1.4.955-2.212,2.187-3.473,2.688C715.425,3720.295,715.493,3719.685,715.418,3719.138Zm.88-.356c.039-.863,1.258-.689.9-1.677l.021.024-.788-1.346C716.27,3716.806,714.812,3717.438,716.3,3718.782Zm-6.875.4c-.079-.505-.516-1-.224-1.873.8.984,1.45,1.791,2.1,2.6A3.061,3.061,0,0,1,709.424,3719.184Zm-2.649.413c.33-.186.541-.441,1.04-.307-.187.3-.365.456-.592.456A.917.917,0,0,1,706.775,3719.6Zm-5.741-2.453.019.009,0,0Zm22.456-1.114.016.007-.016,0A.013.013,0,0,0,723.49,3716.03Zm-25.473-.15a20.768,20.768,0,0,1-2.208-.148c-1.374-.168-1.372-.186-1.378-1.693l-.02-.007c0-.044.009-.088.014-.132,0,.045,0,.088.006.132,1.16.058,2.32.128,3.481.171.155,0,.318,0,.48-.014.634-.037,1.269-.075,1.494.795.156.606-.407.9-1.74.9Zm27.071-.542-.012.02c-.049-.113-.1-.224-.148-.335l.024.007c1.821-.761,3.635-1.536,5.467-2.266.186-.074.483.127.728.2-.141.218-.231.528-.431.64a37.5,37.5,0,0,1-3.923,2.041.73.73,0,0,1-.283.05A8.659,8.659,0,0,1,725.088,3715.338Zm-13.989.1v.007l-.023.015Zm-2.378-.5.01,0-.009.019A.064.064,0,0,0,708.721,3714.934Zm-3.814-.291.015-.02.071.051Zm3.786-.279h0a.015.015,0,0,0,.007-.009l.012-.009-.022.021Zm3.465-1.232c.482.55.139.8-.294,1.123C711.589,3713.726,711.677,3713.4,712.157,3713.133Zm-3.857-1.667a5.938,5.938,0,0,0,1.45,1.682C708.773,3712.992,708.226,3712.484,708.3,3711.466Zm-13.272.519a4.185,4.185,0,0,0-.447-1.92,13.792,13.792,0,0,1,5.736-.25,1.81,1.81,0,0,1-.145,2.048,25.081,25.081,0,0,1-3.223.245A14.384,14.384,0,0,1,695.027,3711.985Zm.452-.892a6.745,6.745,0,0,0,4.33-.243,10.357,10.357,0,0,0-2.1-.259A4.826,4.826,0,0,0,695.479,3711.094Zm16.42.081a1.869,1.869,0,0,0-1.458-1.77c.408-.368.918-.61,1.346-.187.833.823,1.573,1.74,2.352,2.617l-.185.221Zm-3.571.252c.35-.314.654-.775,1.292-.34a.751.751,0,0,1-.7.38C708.722,3711.466,708.52,3711.427,708.328,3711.426Zm11.63-1.733.017,0-.008.019A.132.132,0,0,0,719.959,3709.693Zm-9.569-.2c0,.017,0,.029,0,.029S710.386,3709.512,710.389,3709.492Zm0-.018h0l0,.017Zm.012-.081s.015.015.021.021l-.022-.023.038.013-.014.011c-.012.02-.024.041-.035.058C710.395,3709.451,710.4,3709.423,710.4,3709.393Zm.022.022h0Zm-8.033-.34.021.009-.011.006C702.4,3709.083,702.4,3709.08,702.393,3709.074ZM696,3707.352l.327-.148c.009.02.018.039.027.059a.527.527,0,0,1,.091.211c.01.022.019.042.028.063l-.334.145Zm25.961.035a3.647,3.647,0,0,0-.4-.019c.151-.375.193-.9.472-1.1.879-.635,1.847-1.149,2.638-1.625a2.731,2.731,0,0,1,.63-.261,5.431,5.431,0,0,1,.784.036c-.073.25-.066.6-.232.731-1,.759-2.014,1.506-3.082,2.162a.848.848,0,0,1-.444.1C722.209,3707.408,722.087,3707.4,721.965,3707.387Zm-17.767-.2q-.435-.568-.866-1.135l-.007,0c.006-.008.012-.012.018-.02q.433.567.865,1.137l.008.023Zm-5.091-.847a3.722,3.722,0,0,1-1.141-.717c-.187-.242-.058-.723-.071-1.1.094,0,.193-.007.29-.013a1.658,1.658,0,0,1,.609.031c1.517.482,3.022,1,4.532,1.509a2.583,2.583,0,0,1-2.006,1.029A4.614,4.614,0,0,1,699.108,3706.344Zm6.351-.509.055.023h0l0,.007Zm-1.826-.813c0-.029.057-.054.09-.082l-.016.231C703.67,3705.1,703.631,3705.062,703.633,3705.022Zm-1.028-.354q.194-.513.388-1.027c-.01.368-.022.737-.032,1.105Zm13.113-1.769a10.577,10.577,0,0,0,2.063-1.475c1.112-.762,1.714-2.115,3.065-2.58-.012,2.048-2,2.846-2.778,4.449l1.853-1.233c-.766.848-1.3,1.951-2.5,2.206A3.444,3.444,0,0,1,715.717,3702.9Zm-11.313.721a6.333,6.333,0,0,0-1.392-.054c-.506-.979-1.332-1.855-1.008-3.309l2.75,2.18.015.006c-.333-.5-.642-1.027-1.006-1.508-.85-1.122-.859-1.143.3-1.89a6.551,6.551,0,0,1,.6-.307l-.009.019a7.856,7.856,0,0,1,1.885-.947c.289-.062.816.473,1.069.847.564.833,1.025,1.727,1.526,2.6a9.247,9.247,0,0,0-1.6-.4,1.271,1.271,0,0,1-1.2-1.027c-.118-.367-.232-.7-.364-1.148l-.352.059c.125.448.232.975.392,1.421.047.128.093.3.125.424a3.058,3.058,0,0,1,.058.316c0,.013.006.029.008.042a1.527,1.527,0,0,1-.985,1.674l.027.01-.038,0,1.575.313c0,.143,0,.285-.007.426a2.616,2.616,0,0,1-1.366.332A9.158,9.158,0,0,1,704.4,3703.62Zm-1.41-.052.018,0,0,.009-.025.066C702.993,3703.615,702.993,3703.592,702.994,3703.568Zm-1.215-.211c-.041,0-.084-.057-.127-.089.014-.052.028-.1.042-.156l.207.148c-.039.034-.079.1-.121.1Zm6.965-.395.016.006-.009.007Zm.4-1.665a.264.264,0,0,0-.015-.028l.027.007.723.813-.008.018Zm1.63-.938c-.044-.011,0-.345,0-.529l-.008.02a13.814,13.814,0,0,1,.425-2.337c.116-.333.674-.509,1.03-.757l.522.76.01-.017c.013,0,.033.014.046.015-.014.007-.018.042-.032.046-.142.993-.281,2.045-.426,3.156C711.921,3700.633,711.338,3700.506,710.777,3700.36Zm-2.748-2.292c1.092.774,1.092.774,1,2.287C708.619,3699.414,708.356,3698.814,708.029,3698.068Zm13.7,1.9.021.007,0,.007Zm-18.121-1.406a.686.686,0,0,0-.1-.006c.026-.094.052-.188.078-.283l.316-.006c-.027.1-.026.232-.089.274a.2.2,0,0,1-.113.026C703.672,3698.565,703.639,3698.563,703.608,3698.56Zm9.147-1.063c.2-.088.557-.247.556-.25l0,.007-.008-.019.318-.137a.145.145,0,0,1,.011.018l.6-.253a2.753,2.753,0,0,1-.446.549c0,.006.025-.01.025-.01s.054-.012-.261.125l-.077.01.021-.009a.533.533,0,0,1-.193.03C713.129,3697.555,712.923,3697.506,712.755,3697.5Zm.916.026-.117,0A1.131,1.131,0,0,1,713.671,3697.522Zm0,0h0Zm.654-.716.018.008-.038.016Z"/></g></svg>